<svg xmlns="http://www.w3.org/2000/svg" xmlns:xlink="http://www.w3.org/1999/xlink" width="109" zoomAndPan="magnify" viewBox="0 0 81.75 89.249998" height="119" preserveAspectRatio="xMidYMid meet" version="1.0"><defs><clipPath id="bf5f7b947b"><path d="M 14 0 L 81 0 L 81 88.507812 L 14 88.507812 Z M 14 0 " clip-rule="nonzero"/></clipPath><clipPath id="d40bc2b8e1"><path d="M 0.335938 23 L 57 23 L 57 74 L 0.335938 74 Z M 0.335938 23 " clip-rule="nonzero"/></clipPath></defs><path fill="#9440dd" d="M 67.742188 65.273438 C 73.90625 65.273438 78.90625 60.273438 78.90625 54.109375 C 78.90625 47.941406 73.90625 42.945312 67.742188 42.945312 Z M 67.742188 65.273438 " fill-opacity="1" fill-rule="nonzero"/><g clip-path="url(#bf5f7b947b)"><path fill="#434a54" d="M 70.410156 10.339844 C 63.785156 3.71875 55.011719 0.0703125 45.707031 0.0703125 C 36.40625 0.0703125 27.632812 3.71875 21.011719 10.339844 C 18.515625 12.828125 16.441406 15.628906 14.78125 18.738281 C 13.742188 21.585938 17.105469 22.28125 17.921875 20.386719 C 23.195312 10.421875 33.671875 3.621094 45.707031 3.621094 C 63.035156 3.621094 77.128906 17.714844 77.128906 35.039062 L 77.128906 45.21875 C 74.769531 42.726562 71.433594 41.167969 67.742188 41.167969 C 67.503906 41.167969 67.28125 41.214844 67.0625 41.304688 C 66.84375 41.394531 66.652344 41.523438 66.484375 41.6875 C 66.320312 41.855469 66.191406 42.046875 66.101562 42.265625 C 66.011719 42.480469 65.964844 42.707031 65.964844 42.945312 L 65.964844 65.273438 C 65.964844 65.507812 66.011719 65.734375 66.101562 65.953125 C 66.191406 66.167969 66.320312 66.359375 66.484375 66.527344 C 66.652344 66.695312 66.84375 66.820312 67.0625 66.914062 C 67.28125 67.003906 67.503906 67.046875 67.742188 67.046875 C 74.808594 67.046875 80.570312 61.351562 80.675781 54.308594 C 80.675781 54.285156 80.679688 47.863281 80.679688 35.039062 C 80.679688 25.734375 77.03125 16.964844 70.410156 10.339844 Z M 69.515625 63.328125 L 69.515625 44.886719 C 73.847656 45.71875 77.128906 49.539062 77.128906 54.109375 C 77.128906 58.679688 73.847656 62.496094 69.515625 63.328125 Z M 77.445312 65.09375 C 76.996094 65.09375 76.554688 65.277344 76.234375 65.597656 C 75.902344 65.929688 75.734375 66.335938 75.734375 66.808594 C 75.734375 67.257812 75.917969 67.699219 76.234375 68.019531 C 76.570312 68.351562 76.972656 68.515625 77.445312 68.519531 C 77.917969 68.515625 78.320312 68.351562 78.65625 68.019531 C 78.988281 67.683594 79.15625 67.28125 79.15625 66.808594 C 79.15625 66.355469 78.972656 65.914062 78.65625 65.597656 C 78.320312 65.261719 77.917969 65.097656 77.445312 65.09375 Z M 76.472656 70.675781 C 76.269531 70.554688 76.050781 70.480469 75.816406 70.449219 C 75.585938 70.417969 75.355469 70.433594 75.125 70.496094 C 74.898438 70.554688 74.691406 70.660156 74.503906 70.800781 C 74.316406 70.945312 74.164062 71.117188 74.046875 71.324219 C 70.601562 77.285156 65.1875 81.386719 58.324219 83.265625 L 57.429688 79.0625 C 57.382812 78.832031 57.289062 78.621094 57.15625 78.425781 C 57.023438 78.234375 56.859375 78.070312 56.660156 77.941406 C 56.460938 77.816406 56.25 77.730469 56.015625 77.6875 C 55.785156 77.644531 55.554688 77.648438 55.324219 77.695312 L 49.332031 78.96875 C 49.101562 79.019531 48.890625 79.109375 48.695312 79.242188 C 48.503906 79.375 48.339844 79.542969 48.214844 79.738281 C 48.085938 79.9375 48 80.152344 47.957031 80.382812 C 47.914062 80.613281 47.917969 80.84375 47.964844 81.074219 L 49.238281 87.066406 C 49.289062 87.296875 49.378906 87.507812 49.511719 87.703125 C 49.644531 87.898438 49.8125 88.058594 50.007812 88.1875 C 50.207031 88.3125 50.421875 88.398438 50.652344 88.441406 C 50.882812 88.484375 51.113281 88.484375 51.34375 88.433594 L 57.335938 87.160156 C 66.035156 85.3125 72.875 80.449219 77.121094 73.097656 C 77.238281 72.894531 77.3125 72.675781 77.34375 72.445312 C 77.375 72.210938 77.359375 71.980469 77.300781 71.753906 C 77.238281 71.523438 77.136719 71.316406 76.992188 71.128906 C 76.851562 70.945312 76.675781 70.792969 76.472656 70.675781 Z M 51.808594 82.074219 L 54.324219 81.539062 L 54.859375 84.058594 L 52.34375 84.59375 Z M 51.808594 82.074219 " fill-opacity="1" fill-rule="nonzero"/></g><g clip-path="url(#d40bc2b8e1)"><path fill="#5271ff" d="M 6.910156 27.277344 C 6.546875 27.277344 6.199219 27.347656 5.863281 27.488281 C 5.527344 27.625 5.230469 27.824219 4.972656 28.082031 C 4.71875 28.335938 4.519531 28.632812 4.378906 28.96875 C 4.242188 29.304688 4.171875 29.652344 4.171875 30.015625 L 4.171875 61.617188 C 4.171875 61.980469 4.242188 62.328125 4.378906 62.664062 C 4.519531 63 4.71875 63.296875 4.972656 63.554688 C 5.230469 63.808594 5.527344 64.007812 5.863281 64.148438 C 6.199219 64.285156 6.546875 64.355469 6.910156 64.355469 L 47.4375 64.355469 L 52.085938 70.082031 C 52.25 70.28125 52.449219 70.339844 52.695312 70.253906 C 52.9375 70.167969 53.058594 69.996094 53.058594 69.738281 L 53.058594 30.015625 C 53.058594 29.652344 52.988281 29.304688 52.851562 28.96875 C 52.710938 28.632812 52.511719 28.335938 52.257812 28.078125 C 52 27.824219 51.703125 27.625 51.367188 27.484375 C 51.03125 27.347656 50.683594 27.277344 50.320312 27.277344 Z M 6.910156 67.640625 C 6.515625 67.640625 6.125 67.601562 5.734375 67.527344 C 5.347656 67.449219 4.96875 67.335938 4.605469 67.183594 C 4.238281 67.03125 3.890625 66.847656 3.5625 66.625 C 3.234375 66.40625 2.929688 66.15625 2.648438 65.875 C 2.371094 65.597656 2.121094 65.292969 1.902344 64.964844 C 1.679688 64.632812 1.496094 64.289062 1.34375 63.921875 C 1.191406 63.554688 1.078125 63.179688 1 62.792969 C 0.925781 62.402344 0.886719 62.011719 0.886719 61.617188 L 0.886719 30.015625 C 0.886719 29.621094 0.925781 29.230469 1 28.839844 C 1.078125 28.453125 1.191406 28.074219 1.34375 27.710938 C 1.496094 27.34375 1.679688 26.996094 1.902344 26.667969 C 2.121094 26.339844 2.371094 26.035156 2.648438 25.753906 C 2.929688 25.476562 3.234375 25.226562 3.5625 25.007812 C 3.890625 24.785156 4.238281 24.601562 4.605469 24.449219 C 4.96875 24.296875 5.347656 24.183594 5.734375 24.105469 C 6.125 24.027344 6.515625 23.992188 6.910156 23.992188 L 50.320312 23.992188 C 50.714844 23.992188 51.109375 24.027344 51.496094 24.105469 C 51.882812 24.183594 52.261719 24.296875 52.625 24.449219 C 52.992188 24.601562 53.339844 24.785156 53.667969 25.007812 C 53.996094 25.226562 54.300781 25.476562 54.582031 25.753906 C 54.859375 26.035156 55.109375 26.339844 55.332031 26.667969 C 55.550781 26.996094 55.734375 27.34375 55.886719 27.710938 C 56.039062 28.074219 56.152344 28.453125 56.230469 28.839844 C 56.308594 29.230469 56.34375 29.621094 56.34375 30.015625 L 56.34375 69.738281 C 56.34375 70.132812 56.285156 70.519531 56.164062 70.898438 C 56.046875 71.273438 55.871094 71.625 55.644531 71.949219 C 55.414062 72.273438 55.140625 72.554688 54.828125 72.792969 C 54.511719 73.03125 54.167969 73.21875 53.792969 73.351562 C 53.417969 73.484375 53.035156 73.554688 52.640625 73.570312 C 52.242188 73.582031 51.855469 73.535156 51.472656 73.429688 C 51.09375 73.320312 50.734375 73.160156 50.40625 72.941406 C 50.074219 72.722656 49.785156 72.460938 49.535156 72.152344 L 45.871094 67.640625 Z M 6.910156 67.640625 " fill-opacity="1" fill-rule="nonzero"/></g><path fill="#434a54" d="M 7.761719 49.867188 L 7.761719 47.335938 L 13.605469 41.292969 C 14.707031 40.140625 15.5625 39.007812 15.5625 37.855469 C 15.5625 36.480469 14.632812 35.621094 13.335938 35.621094 C 12.015625 35.621094 11.039062 36.40625 10.476562 37.632812 L 7.640625 35.964844 C 8.742188 33.503906 10.964844 32.328125 13.289062 32.328125 C 16.222656 32.328125 18.933594 34.292969 18.933594 37.734375 C 18.933594 39.820312 17.738281 41.613281 16.125 43.234375 L 12.773438 46.601562 L 19.203125 46.601562 L 19.203125 49.867188 Z M 34.355469 43.800781 L 34.355469 46.945312 L 32.519531 46.945312 L 32.519531 49.867188 L 29.125 49.867188 L 29.125 46.945312 L 21.03125 46.945312 L 21.03125 43.800781 L 26.925781 32.328125 L 30.542969 32.328125 L 24.675781 43.800781 L 29.125 43.800781 L 29.125 39.722656 L 32.519531 39.722656 L 32.519531 43.800781 Z M 38.710938 44.105469 L 49.757812 44.105469 L 49.757812 46.980469 L 43.964844 61.304688 L 40.398438 61.304688 L 46.019531 47.351562 L 38.710938 47.351562 Z M 38.710938 44.105469 " fill-opacity="1" fill-rule="evenodd"/><path fill="#9440dd" d="M 42.453125 32.9375 L 27.191406 61.304688 L 28.667969 61.304688 L 43.921875 32.9375 Z M 42.453125 32.9375 " fill-opacity="1" fill-rule="evenodd"/></svg>