<svg xmlns="http://www.w3.org/2000/svg" xmlns:xlink="http://www.w3.org/1999/xlink" width="158" zoomAndPan="magnify" viewBox="0 0 118.5 79.499998" height="106" preserveAspectRatio="xMidYMid meet" version="1.0"><defs><clipPath id="81c93af93a"><path d="M 30 3 L 117.722656 3 L 117.722656 79 L 30 79 Z M 30 3 " clip-rule="nonzero"/></clipPath><clipPath id="38b6c4c25f"><path d="M 39 16 L 117.722656 16 L 117.722656 34 L 39 34 Z M 39 16 " clip-rule="nonzero"/></clipPath><clipPath id="da8d4beaa6"><path d="M 0.121094 33 L 52 33 L 52 46 L 0.121094 46 Z M 0.121094 33 " clip-rule="nonzero"/></clipPath><clipPath id="3ced81a2d8"><path d="M 13 0.105469 L 61 0.105469 L 61 54 L 13 54 Z M 13 0.105469 " clip-rule="nonzero"/></clipPath></defs><path fill="#9440dd" d="M 64.6875 9.78125 L 100.210938 20.882812 L 100.210938 38.265625 L 88.457031 42.09375 L 88.457031 25.570312 L 51.476562 13.78125 Z M 64.6875 9.78125 " fill-opacity="1" fill-rule="evenodd"/><g clip-path="url(#81c93af93a)"><path fill="#434a54" d="M 66.378906 9.738281 L 102.132812 21.164062 C 102.519531 21.285156 102.828125 21.511719 103.070312 21.835938 C 103.308594 22.164062 103.425781 22.527344 103.425781 22.933594 L 103.425781 38.019531 C 103.425781 38.414062 103.3125 38.773438 103.085938 39.09375 C 102.859375 39.417969 102.558594 39.644531 102.1875 39.773438 L 98.691406 41.007812 C 98.457031 41.089844 98.21875 41.125 97.972656 41.113281 C 97.726562 41.097656 97.492188 41.039062 97.269531 40.933594 C 97.046875 40.828125 96.851562 40.679688 96.6875 40.496094 C 96.523438 40.3125 96.398438 40.105469 96.316406 39.875 C 96.234375 39.640625 96.199219 39.402344 96.214844 39.15625 C 96.226562 38.910156 96.285156 38.675781 96.394531 38.453125 C 96.5 38.230469 96.644531 38.035156 96.828125 37.871094 C 97.011719 37.707031 97.21875 37.582031 97.453125 37.5 L 99.707031 36.703125 L 99.707031 24.292969 L 59.890625 11.574219 C 58.183594 11.027344 58.160156 8.621094 59.855469 8.039062 L 72.953125 3.554688 C 73.339844 3.421875 73.726562 3.417969 74.117188 3.539062 L 115.792969 16.691406 C 116.179688 16.8125 116.492188 17.039062 116.730469 17.367188 C 116.972656 17.695312 117.09375 18.0625 117.09375 18.46875 L 117.09375 63.835938 C 117.09375 64.242188 116.972656 64.609375 116.734375 64.9375 C 116.492188 65.261719 116.179688 65.488281 115.792969 65.609375 L 74.117188 78.792969 C 73.742188 78.914062 73.363281 78.914062 72.988281 78.792969 L 31.832031 65.609375 C 31.445312 65.484375 31.136719 65.261719 30.894531 64.933594 C 30.65625 64.605469 30.539062 64.242188 30.539062 63.835938 L 30.539062 57.695312 C 30.539062 57.449219 30.585938 57.210938 30.679688 56.984375 C 30.773438 56.753906 30.910156 56.554688 31.082031 56.378906 C 31.257812 56.207031 31.460938 56.070312 31.6875 55.976562 C 31.914062 55.882812 32.152344 55.835938 32.398438 55.835938 C 32.644531 55.835938 32.882812 55.882812 33.109375 55.976562 C 33.339844 56.070312 33.539062 56.207031 33.714844 56.378906 C 33.890625 56.554688 34.023438 56.753906 34.117188 56.984375 C 34.210938 57.210938 34.257812 57.449219 34.257812 57.695312 L 34.257812 62.476562 L 73.558594 75.066406 L 113.371094 62.472656 L 113.371094 19.832031 L 73.578125 7.273438 Z M 66.378906 9.738281 " fill-opacity="1" fill-rule="nonzero"/></g><g clip-path="url(#38b6c4c25f)"><path fill="#434a54" d="M 114.671875 16.9375 C 114.90625 16.863281 115.144531 16.835938 115.390625 16.855469 C 115.636719 16.878906 115.871094 16.945312 116.089844 17.058594 C 116.308594 17.171875 116.496094 17.324219 116.65625 17.511719 C 116.816406 17.703125 116.933594 17.914062 117.007812 18.148438 C 117.082031 18.386719 117.109375 18.625 117.085938 18.871094 C 117.066406 19.117188 116.996094 19.351562 116.882812 19.570312 C 116.769531 19.789062 116.617188 19.976562 116.429688 20.136719 C 116.242188 20.292969 116.027344 20.410156 115.792969 20.484375 L 74.117188 33.667969 C 73.742188 33.789062 73.367188 33.789062 72.992188 33.667969 L 41.1875 23.550781 C 40.957031 23.472656 40.746094 23.355469 40.5625 23.195312 C 40.378906 23.035156 40.230469 22.847656 40.121094 22.628906 C 40.007812 22.414062 39.945312 22.183594 39.925781 21.9375 C 39.90625 21.695312 39.929688 21.457031 40.003906 21.222656 C 40.078125 20.992188 40.195312 20.78125 40.351562 20.59375 C 40.507812 20.40625 40.695312 20.257812 40.910156 20.140625 C 41.128906 20.027344 41.355469 19.960938 41.601562 19.9375 C 41.84375 19.914062 42.082031 19.9375 42.316406 20.007812 L 73.558594 29.941406 Z M 114.671875 16.9375 " fill-opacity="1" fill-rule="nonzero"/></g><path fill="#434a54" d="M 92.125 39.148438 C 92.359375 39.074219 92.597656 39.046875 92.84375 39.066406 C 93.089844 39.085938 93.320312 39.148438 93.539062 39.261719 C 93.757812 39.371094 93.949219 39.523438 94.109375 39.707031 C 94.269531 39.894531 94.386719 40.105469 94.464844 40.335938 C 94.542969 40.570312 94.570312 40.808594 94.554688 41.054688 C 94.535156 41.300781 94.472656 41.53125 94.363281 41.753906 C 94.253906 41.972656 94.105469 42.164062 93.917969 42.324219 C 93.734375 42.484375 93.523438 42.605469 93.292969 42.683594 L 88.703125 44.199219 C 88.5625 44.246094 88.421875 44.273438 88.273438 44.285156 C 88.128906 44.296875 87.980469 44.292969 87.835938 44.269531 C 87.691406 44.25 87.550781 44.210938 87.414062 44.152344 C 87.277344 44.097656 87.148438 44.027344 87.03125 43.941406 C 86.910156 43.855469 86.804688 43.753906 86.707031 43.644531 C 86.613281 43.53125 86.53125 43.410156 86.464844 43.277344 C 86.398438 43.148438 86.347656 43.011719 86.3125 42.867188 C 86.277344 42.722656 86.261719 42.578125 86.261719 42.433594 L 86.261719 28.707031 L 46.445312 15.984375 C 44.730469 15.4375 44.71875 13.011719 46.425781 12.445312 L 62.058594 7.269531 C 62.292969 7.1875 62.535156 7.15625 62.78125 7.171875 C 63.03125 7.1875 63.265625 7.25 63.488281 7.359375 C 63.710938 7.472656 63.90625 7.621094 64.070312 7.808594 C 64.230469 7.996094 64.351562 8.207031 64.429688 8.445312 C 64.507812 8.679688 64.539062 8.921875 64.519531 9.171875 C 64.5 9.417969 64.433594 9.652344 64.320312 9.875 C 64.207031 10.097656 64.058594 10.289062 63.867188 10.449219 C 63.675781 10.609375 63.464844 10.726562 63.226562 10.800781 L 53.023438 14.179688 L 88.6875 25.574219 C 89.074219 25.695312 89.386719 25.921875 89.625 26.25 C 89.863281 26.574219 89.984375 26.941406 89.984375 27.347656 L 89.984375 39.859375 Z M 92.125 39.148438 " fill-opacity="1" fill-rule="nonzero"/><path fill="#434a54" d="M 34.25 20.15625 L 34.25 29.121094 C 34.25 29.367188 34.203125 29.605469 34.109375 29.832031 C 34.011719 30.058594 33.878906 30.261719 33.703125 30.4375 C 33.53125 30.609375 33.328125 30.746094 33.101562 30.839844 C 32.871094 30.933594 32.636719 30.980469 32.390625 30.980469 C 32.140625 30.980469 31.90625 30.933594 31.675781 30.839844 C 31.449219 30.746094 31.246094 30.609375 31.074219 30.4375 C 30.898438 30.261719 30.765625 30.058594 30.667969 29.832031 C 30.574219 29.605469 30.527344 29.367188 30.527344 29.121094 L 30.527344 18.789062 C 30.527344 18.382812 30.648438 18.015625 30.890625 17.6875 C 31.128906 17.359375 31.445312 17.136719 31.832031 17.015625 L 46.613281 12.371094 C 46.851562 12.296875 47.09375 12.265625 47.339844 12.285156 C 47.585938 12.308594 47.820312 12.375 48.042969 12.488281 C 48.261719 12.601562 48.453125 12.753906 48.613281 12.941406 C 48.773438 13.132812 48.890625 13.347656 48.964844 13.582031 C 49.039062 13.820312 49.066406 14.0625 49.042969 14.3125 C 49.019531 14.558594 48.953125 14.792969 48.835938 15.011719 C 48.71875 15.230469 48.566406 15.417969 48.375 15.578125 C 48.179688 15.734375 47.964844 15.851562 47.730469 15.921875 Z M 34.25 20.15625 " fill-opacity="1" fill-rule="nonzero"/><g clip-path="url(#da8d4beaa6)"><path fill="#5271ff" d="M 49.960938 33.222656 C 50.210938 33.222656 50.445312 33.269531 50.675781 33.363281 C 50.902344 33.460938 51.105469 33.59375 51.277344 33.769531 C 51.453125 33.941406 51.585938 34.144531 51.679688 34.371094 C 51.777344 34.601562 51.824219 34.835938 51.824219 35.082031 C 51.824219 35.332031 51.777344 35.566406 51.679688 35.796875 C 51.585938 36.023438 51.453125 36.226562 51.277344 36.398438 C 51.105469 36.574219 50.902344 36.707031 50.675781 36.800781 C 50.445312 36.898438 50.210938 36.945312 49.960938 36.945312 L 16.5 36.945312 C 16.253906 36.945312 16.015625 36.898438 15.785156 36.800781 C 15.558594 36.707031 15.359375 36.574219 15.183594 36.398438 C 15.007812 36.226562 14.875 36.023438 14.78125 35.796875 C 14.6875 35.566406 14.636719 35.332031 14.636719 35.082031 C 14.636719 34.835938 14.6875 34.601562 14.78125 34.371094 C 14.875 34.144531 15.007812 33.941406 15.183594 33.769531 C 15.359375 33.59375 15.558594 33.460938 15.785156 33.363281 C 16.015625 33.269531 16.253906 33.222656 16.5 33.222656 Z M 31.355469 41.410156 C 31.605469 41.410156 31.839844 41.457031 32.070312 41.550781 C 32.296875 41.644531 32.5 41.78125 32.671875 41.953125 C 32.847656 42.128906 32.980469 42.332031 33.078125 42.558594 C 33.171875 42.785156 33.21875 43.023438 33.21875 43.269531 C 33.21875 43.515625 33.171875 43.753906 33.078125 43.980469 C 32.980469 44.210938 32.847656 44.410156 32.671875 44.585938 C 32.5 44.761719 32.296875 44.894531 32.070312 44.988281 C 31.839844 45.082031 31.605469 45.128906 31.355469 45.128906 L 2.359375 45.128906 C 2.113281 45.128906 1.875 45.082031 1.648438 44.988281 C 1.417969 44.894531 1.21875 44.761719 1.042969 44.585938 C 0.867188 44.410156 0.734375 44.210938 0.640625 43.980469 C 0.546875 43.753906 0.5 43.515625 0.5 43.269531 C 0.5 43.023438 0.546875 42.785156 0.640625 42.558594 C 0.734375 42.332031 0.867188 42.128906 1.042969 41.953125 C 1.21875 41.78125 1.417969 41.644531 1.648438 41.550781 C 1.875 41.457031 2.113281 41.410156 2.359375 41.410156 Z M 31.355469 41.410156 " fill-opacity="1" fill-rule="nonzero"/></g><path fill="#5271ff" d="M 12.777344 35.082031 C 12.777344 35.332031 12.730469 35.566406 12.636719 35.796875 C 12.542969 36.023438 12.40625 36.226562 12.234375 36.398438 C 12.058594 36.574219 11.859375 36.707031 11.628906 36.800781 C 11.402344 36.898438 11.164062 36.945312 10.917969 36.945312 C 10.671875 36.945312 10.433594 36.898438 10.207031 36.800781 C 9.976562 36.707031 9.777344 36.574219 9.601562 36.398438 C 9.425781 36.226562 9.292969 36.023438 9.199219 35.796875 C 9.105469 35.566406 9.058594 35.332031 9.058594 35.082031 C 9.058594 34.835938 9.105469 34.601562 9.199219 34.371094 C 9.292969 34.144531 9.425781 33.941406 9.601562 33.769531 C 9.777344 33.59375 9.976562 33.460938 10.207031 33.363281 C 10.433594 33.269531 10.671875 33.222656 10.917969 33.222656 C 11.164062 33.222656 11.402344 33.269531 11.628906 33.363281 C 11.859375 33.460938 12.058594 33.59375 12.234375 33.769531 C 12.40625 33.941406 12.542969 34.144531 12.636719 34.371094 C 12.730469 34.601562 12.777344 34.835938 12.777344 35.082031 Z M 12.777344 35.082031 " fill-opacity="1" fill-rule="nonzero"/><path fill="#5271ff" d="M 17.988281 51.457031 C 17.988281 51.703125 17.941406 51.941406 17.847656 52.167969 C 17.75 52.394531 17.617188 52.597656 17.441406 52.773438 C 17.269531 52.945312 17.066406 53.082031 16.839844 53.175781 C 16.609375 53.269531 16.375 53.316406 16.128906 53.316406 C 15.878906 53.316406 15.644531 53.269531 15.414062 53.175781 C 15.1875 53.082031 14.984375 52.945312 14.8125 52.773438 C 14.636719 52.597656 14.503906 52.394531 14.40625 52.167969 C 14.3125 51.941406 14.265625 51.703125 14.265625 51.457031 C 14.265625 51.210938 14.3125 50.972656 14.40625 50.746094 C 14.503906 50.515625 14.636719 50.316406 14.8125 50.140625 C 14.984375 49.964844 15.1875 49.832031 15.414062 49.738281 C 15.644531 49.644531 15.878906 49.597656 16.128906 49.597656 C 16.375 49.597656 16.609375 49.644531 16.839844 49.738281 C 17.066406 49.832031 17.269531 49.964844 17.441406 50.140625 C 17.617188 50.316406 17.75 50.515625 17.847656 50.746094 C 17.941406 50.972656 17.988281 51.210938 17.988281 51.457031 Z M 17.988281 51.457031 " fill-opacity="1" fill-rule="nonzero"/><g clip-path="url(#3ced81a2d8)"><path fill="#5271ff" d="M 40.289062 49.597656 C 40.535156 49.597656 40.773438 49.644531 41 49.738281 C 41.226562 49.832031 41.429688 49.964844 41.601562 50.140625 C 41.777344 50.316406 41.914062 50.515625 42.007812 50.746094 C 42.101562 50.972656 42.148438 51.210938 42.148438 51.457031 C 42.148438 51.703125 42.101562 51.941406 42.007812 52.167969 C 41.914062 52.394531 41.777344 52.597656 41.601562 52.773438 C 41.429688 52.945312 41.226562 53.082031 41 53.175781 C 40.773438 53.269531 40.535156 53.316406 40.289062 53.316406 L 21.707031 53.316406 C 21.460938 53.316406 21.222656 53.269531 20.996094 53.175781 C 20.769531 53.082031 20.566406 52.945312 20.394531 52.773438 C 20.21875 52.597656 20.085938 52.394531 19.988281 52.167969 C 19.894531 51.941406 19.847656 51.703125 19.847656 51.457031 C 19.847656 51.210938 19.894531 50.972656 19.988281 50.746094 C 20.085938 50.515625 20.21875 50.316406 20.394531 50.140625 C 20.566406 49.964844 20.769531 49.832031 20.996094 49.738281 C 21.222656 49.644531 21.460938 49.597656 21.707031 49.597656 Z M 58.894531 0.476562 C 59.140625 0.476562 59.378906 0.523438 59.605469 0.621094 C 59.832031 0.714844 60.035156 0.847656 60.207031 1.023438 C 60.382812 1.195312 60.519531 1.398438 60.613281 1.625 C 60.707031 1.855469 60.753906 2.089844 60.753906 2.339844 C 60.753906 2.585938 60.707031 2.824219 60.613281 3.050781 C 60.519531 3.277344 60.382812 3.480469 60.207031 3.652344 C 60.035156 3.828125 59.832031 3.960938 59.605469 4.058594 C 59.378906 4.152344 59.140625 4.199219 58.894531 4.199219 L 29.894531 4.199219 C 29.648438 4.199219 29.410156 4.152344 29.183594 4.058594 C 28.953125 3.960938 28.753906 3.828125 28.578125 3.652344 C 28.40625 3.480469 28.269531 3.277344 28.175781 3.050781 C 28.082031 2.824219 28.035156 2.585938 28.035156 2.339844 C 28.035156 2.089844 28.082031 1.855469 28.175781 1.625 C 28.269531 1.398438 28.40625 1.195312 28.578125 1.023438 C 28.753906 0.847656 28.953125 0.714844 29.183594 0.621094 C 29.410156 0.523438 29.648438 0.476562 29.894531 0.476562 Z M 29.867188 9.410156 C 30.117188 9.410156 30.351562 9.457031 30.582031 9.550781 C 30.808594 9.644531 31.011719 9.777344 31.183594 9.953125 C 31.359375 10.128906 31.492188 10.328125 31.585938 10.558594 C 31.683594 10.785156 31.730469 11.023438 31.730469 11.269531 C 31.730469 11.515625 31.683594 11.753906 31.585938 11.980469 C 31.492188 12.207031 31.359375 12.410156 31.183594 12.585938 C 31.011719 12.757812 30.808594 12.894531 30.582031 12.988281 C 30.351562 13.082031 30.117188 13.128906 29.867188 13.128906 L 15.753906 13.128906 C 15.507812 13.128906 15.269531 13.082031 15.042969 12.988281 C 14.816406 12.894531 14.613281 12.757812 14.4375 12.585938 C 14.265625 12.410156 14.128906 12.207031 14.035156 11.980469 C 13.941406 11.753906 13.894531 11.515625 13.894531 11.269531 C 13.894531 11.023438 13.941406 10.785156 14.035156 10.558594 C 14.128906 10.328125 14.265625 10.128906 14.4375 9.953125 C 14.613281 9.777344 14.816406 9.644531 15.042969 9.550781 C 15.269531 9.457031 15.507812 9.410156 15.753906 9.410156 Z M 29.867188 9.410156 " fill-opacity="1" fill-rule="nonzero"/></g><path fill="#434a54" d="M 75.664062 76.851562 C 75.664062 77.097656 75.617188 77.335938 75.523438 77.566406 C 75.429688 77.792969 75.292969 77.992188 75.121094 78.167969 C 74.945312 78.34375 74.742188 78.476562 74.515625 78.570312 C 74.289062 78.667969 74.050781 78.714844 73.804688 78.714844 C 73.558594 78.714844 73.320312 78.667969 73.089844 78.570312 C 72.863281 78.476562 72.664062 78.34375 72.488281 78.167969 C 72.3125 77.992188 72.179688 77.792969 72.085938 77.566406 C 71.988281 77.335938 71.941406 77.097656 71.941406 76.851562 L 71.941406 67.652344 C 71.941406 67.402344 71.988281 67.167969 72.085938 66.9375 C 72.179688 66.710938 72.3125 66.507812 72.488281 66.335938 C 72.664062 66.160156 72.863281 66.027344 73.089844 65.929688 C 73.320312 65.835938 73.558594 65.789062 73.804688 65.789062 C 74.050781 65.789062 74.289062 65.835938 74.515625 65.929688 C 74.742188 66.027344 74.945312 66.160156 75.121094 66.335938 C 75.292969 66.507812 75.429688 66.710938 75.523438 66.9375 C 75.617188 67.167969 75.664062 67.402344 75.664062 67.652344 Z M 75.664062 60.175781 C 75.664062 60.421875 75.617188 60.660156 75.523438 60.886719 C 75.429688 61.113281 75.292969 61.316406 75.121094 61.488281 C 74.945312 61.664062 74.742188 61.796875 74.515625 61.894531 C 74.289062 61.988281 74.050781 62.035156 73.804688 62.035156 C 73.558594 62.035156 73.320312 61.988281 73.089844 61.894531 C 72.863281 61.796875 72.664062 61.664062 72.488281 61.488281 C 72.3125 61.316406 72.179688 61.113281 72.085938 60.886719 C 71.988281 60.660156 71.941406 60.421875 71.941406 60.175781 L 71.941406 33.59375 C 71.941406 33.347656 71.988281 33.109375 72.085938 32.882812 C 72.179688 32.65625 72.3125 32.453125 72.488281 32.28125 C 72.664062 32.105469 72.863281 31.972656 73.089844 31.875 C 73.320312 31.78125 73.558594 31.734375 73.804688 31.734375 C 74.050781 31.734375 74.289062 31.78125 74.515625 31.875 C 74.742188 31.972656 74.945312 32.105469 75.121094 32.28125 C 75.292969 32.453125 75.429688 32.65625 75.523438 32.882812 C 75.617188 33.109375 75.664062 33.347656 75.664062 33.59375 Z M 75.664062 60.175781 " fill-opacity="1" fill-rule="nonzero"/></svg>
