<svg xmlns="http://www.w3.org/2000/svg" xmlns:xlink="http://www.w3.org/1999/xlink" width="101" zoomAndPan="magnify" viewBox="0 0 75.75 89.999999" height="120" preserveAspectRatio="xMidYMid meet" version="1.0"><defs><clipPath id="1478c82185"><path d="M 0.0742188 0.148438 L 75 0.148438 L 75 75 L 0.0742188 75 Z M 0.0742188 0.148438 " clip-rule="nonzero"/></clipPath><clipPath id="c083630942"><path d="M 0.0742188 0.148438 L 75.5 0.148438 L 75.5 79 L 0.0742188 79 Z M 0.0742188 0.148438 " clip-rule="nonzero"/></clipPath><clipPath id="3d67e242fc"><path d="M 17 71 L 60 71 L 60 89.851562 L 17 89.851562 Z M 17 71 " clip-rule="nonzero"/></clipPath></defs><g clip-path="url(#1478c82185)"><path fill="#434a54" d="M 69.785156 40.386719 C 71.121094 38.742188 71.601562 37.980469 71.601562 37.539062 C 71.601562 37.097656 71.121094 36.335938 69.785156 34.695312 L 69.617188 34.488281 C 68.027344 32.523438 67.289062 31.375 66.867188 29.8125 C 66.550781 28.640625 66.503906 27.425781 66.652344 25.964844 C 66.707031 25.417969 66.769531 24.960938 66.90625 24.0625 C 67.226562 21.988281 67.257812 21.105469 67.070312 20.785156 C 66.882812 20.457031 66.089844 20.03125 64.351562 19.359375 L 64.128906 19.273438 C 61.457031 18.246094 60.28125 17.652344 59.0625 16.445312 C 57.839844 15.234375 57.242188 14.074219 56.203125 11.425781 L 56.113281 11.207031 C 55.4375 9.484375 55.007812 8.703125 54.675781 8.515625 C 54.378906 8.34375 53.496094 8.359375 51.765625 8.617188 L 51.484375 8.660156 C 50.460938 8.8125 50 8.875 49.449219 8.929688 C 47.972656 9.074219 46.742188 9.027344 45.554688 8.714844 C 43.917969 8.28125 42.832031 7.582031 40.625 5.824219 C 38.964844 4.507812 38.195312 4.03125 37.75 4.03125 C 37.394531 4.03125 36.6875 4.414062 35.574219 5.277344 C 35.410156 5.402344 35.242188 5.53125 35 5.726562 C 32.667969 7.582031 31.582031 8.28125 29.945312 8.714844 C 28.253906 9.160156 26.925781 9.09375 24.070312 8.667969 C 22.039062 8.359375 21.144531 8.328125 20.824219 8.511719 C 20.476562 8.710938 20.054688 9.5 19.296875 11.425781 C 18.257812 14.070312 17.660156 15.234375 16.4375 16.441406 C 15.316406 17.554688 14.054688 18.226562 11.902344 19.066406 C 11.753906 19.125 11.632812 19.171875 11.367188 19.273438 L 11.148438 19.359375 C 9.410156 20.03125 8.617188 20.457031 8.429688 20.78125 C 8.257812 21.078125 8.273438 21.953125 8.53125 23.667969 L 8.574219 23.945312 C 8.726562 24.953125 8.792969 25.414062 8.847656 25.957031 C 8.992188 27.417969 8.949219 28.636719 8.628906 29.8125 C 8.191406 31.433594 7.484375 32.511719 5.710938 34.695312 C 5.417969 35.058594 5.285156 35.21875 5.160156 35.382812 C 4.285156 36.484375 3.898438 37.1875 3.898438 37.539062 C 3.898438 37.894531 4.285156 38.589844 5.152344 39.691406 C 5.28125 39.855469 5.414062 40.019531 5.609375 40.257812 C 7.484375 42.566406 8.191406 43.644531 8.628906 45.265625 C 8.945312 46.441406 8.992188 47.65625 8.847656 49.117188 C 8.792969 49.664062 8.726562 50.121094 8.589844 51.019531 C 8.273438 53.089844 8.238281 53.976562 8.425781 54.296875 C 8.617188 54.621094 9.410156 55.050781 11.144531 55.71875 L 11.367188 55.804688 C 14.042969 56.835938 15.214844 57.425781 16.4375 58.636719 C 17.660156 59.84375 18.257812 61.007812 19.296875 63.652344 L 19.382812 63.875 C 20.058594 65.59375 20.492188 66.375 20.820312 66.566406 C 21.117188 66.734375 22.003906 66.71875 23.734375 66.460938 L 24.015625 66.421875 C 25.039062 66.265625 25.503906 66.203125 26.054688 66.148438 C 26.578125 66.097656 27.058594 66.074219 27.527344 66.074219 C 28.386719 66.074219 29.179688 66.164062 29.941406 66.363281 C 31.582031 66.796875 32.667969 67.5 34.875 69.253906 C 36.53125 70.574219 37.304688 71.050781 37.75 71.050781 C 38.195312 71.050781 38.964844 70.574219 40.621094 69.253906 L 40.832031 69.085938 C 42.816406 67.515625 43.976562 66.78125 45.554688 66.363281 C 47.242188 65.917969 48.570312 65.984375 51.429688 66.414062 C 53.457031 66.71875 54.351562 66.75 54.675781 66.566406 C 55.023438 66.367188 55.445312 65.578125 56.199219 63.65625 C 57.238281 61.007812 57.835938 59.84375 59.058594 58.636719 C 60.28125 57.425781 61.453125 56.835938 64.128906 55.804688 L 64.351562 55.71875 C 66.089844 55.050781 66.878906 54.621094 67.070312 54.296875 C 67.242188 54.003906 67.226562 53.128906 66.964844 51.410156 L 66.925781 51.132812 C 66.484375 48.253906 66.417969 46.9375 66.867188 45.265625 C 67.304688 43.644531 68.011719 42.570312 69.785156 40.386719 Z M 69.839844 46.054688 C 69.539062 47.179688 69.589844 48.214844 69.960938 50.625 C 69.988281 50.816406 69.988281 50.816406 70.011719 50.960938 C 70.390625 53.464844 70.410156 54.664062 69.734375 55.820312 C 69.035156 57.019531 67.972656 57.59375 65.472656 58.558594 L 65.246094 58.644531 C 62.972656 59.519531 62.050781 59.984375 61.234375 60.789062 C 60.421875 61.59375 59.953125 62.511719 59.070312 64.757812 C 57.992188 67.5 57.464844 68.488281 56.21875 69.203125 C 54.992188 69.902344 53.886719 69.863281 50.96875 69.425781 C 48.535156 69.058594 47.484375 69.007812 46.351562 69.308594 C 45.316406 69.582031 44.417969 70.148438 42.757812 71.464844 L 42.550781 71.628906 C 40.214844 73.488281 39.230469 74.09375 37.75 74.09375 C 36.269531 74.09375 35.285156 73.488281 32.949219 71.628906 C 31.078125 70.144531 30.226562 69.59375 29.148438 69.308594 C 28.664062 69.179688 28.132812 69.117188 27.527344 69.117188 C 27.167969 69.117188 26.785156 69.140625 26.359375 69.183594 C 25.875 69.230469 25.449219 69.285156 24.597656 69.414062 L 24.191406 69.476562 C 21.664062 69.847656 20.449219 69.871094 19.28125 69.203125 C 18.070312 68.511719 17.492188 67.457031 16.515625 64.980469 L 16.429688 64.757812 C 15.546875 62.507812 15.074219 61.59375 14.261719 60.789062 C 13.449219 59.984375 12.523438 59.519531 10.253906 58.644531 L 10.027344 58.558594 C 7.527344 57.589844 6.460938 57.015625 5.761719 55.820312 C 5.054688 54.609375 5.097656 53.515625 5.539062 50.625 C 5.679688 49.714844 5.738281 49.292969 5.785156 48.816406 C 5.898438 47.691406 5.863281 46.820312 5.65625 46.054688 C 5.371094 44.988281 4.8125 44.140625 3.3125 42.292969 C 3.007812 41.914062 2.867188 41.742188 2.730469 41.566406 C 1.4375 39.929688 0.820312 38.820312 0.820312 37.539062 C 0.820312 36.257812 1.4375 35.148438 2.734375 33.507812 C 2.871094 33.332031 3.007812 33.160156 3.210938 32.914062 C 4.8125 30.9375 5.371094 30.09375 5.65625 29.023438 C 5.863281 28.257812 5.898438 27.386719 5.785156 26.257812 C 5.738281 25.78125 5.679688 25.359375 5.550781 24.515625 L 5.488281 24.117188 C 5.109375 21.617188 5.085938 20.414062 5.765625 19.257812 C 6.464844 18.0625 7.527344 17.488281 10.027344 16.519531 L 10.253906 16.433594 L 10.773438 16.234375 C 12.558594 15.535156 13.519531 15.023438 14.261719 14.289062 C 15.074219 13.484375 15.546875 12.570312 16.429688 10.320312 C 17.507812 7.578125 18.035156 6.589844 19.28125 5.875 C 20.507812 5.175781 21.613281 5.214844 24.53125 5.65625 C 26.964844 6.019531 28.011719 6.070312 29.148438 5.773438 C 30.226562 5.484375 31.082031 4.9375 32.949219 3.449219 C 33.328125 3.148438 33.5 3.011719 33.679688 2.875 C 35.335938 1.59375 36.453125 0.984375 37.75 0.984375 C 39.230469 0.984375 40.214844 1.59375 42.550781 3.453125 C 44.417969 4.9375 45.273438 5.488281 46.351562 5.773438 C 47.125 5.976562 48.007812 6.007812 49.144531 5.898438 C 49.628906 5.851562 50.054688 5.792969 50.90625 5.664062 L 51.308594 5.605469 C 53.835938 5.230469 55.046875 5.207031 56.21875 5.878906 C 57.425781 6.570312 58.007812 7.625 58.980469 10.097656 L 59.070312 10.320312 C 59.953125 12.570312 60.425781 13.484375 61.238281 14.289062 C 62.050781 15.09375 62.976562 15.5625 65.246094 16.4375 L 65.46875 16.523438 C 67.972656 17.488281 69.035156 18.0625 69.734375 19.257812 C 70.445312 20.46875 70.402344 21.566406 69.960938 24.457031 C 69.820312 25.367188 69.761719 25.789062 69.714844 26.265625 C 69.601562 27.390625 69.632812 28.261719 69.839844 29.027344 C 70.117188 30.050781 70.6875 30.941406 72.019531 32.582031 L 72.183594 32.785156 C 74.0625 35.101562 74.675781 36.074219 74.675781 37.539062 C 74.675781 39.003906 74.0625 39.980469 72.1875 42.292969 C 70.683594 44.140625 70.128906 44.988281 69.839844 46.054688 Z M 69.839844 46.054688 " fill-opacity="1" fill-rule="nonzero"/></g><g clip-path="url(#c083630942)"><path stroke-linecap="butt" transform="matrix(0.746029, 0, 0, 0.746029, 0.820783, 0.984261)" fill="none" stroke-linejoin="miter" d="M 92.441886 52.81622 C 94.232616 50.611841 94.87665 49.590811 94.87665 48.999137 C 94.87665 48.407463 94.232616 47.386433 92.441886 45.187291 L 92.216735 44.90978 C 90.085662 42.276045 89.096048 40.736645 88.530554 38.642224 C 88.106434 37.071408 88.043601 35.442996 88.242571 33.484712 C 88.315876 32.751665 88.399653 32.139046 88.582915 30.934754 C 89.012271 28.15441 89.054159 26.971062 88.802829 26.541706 C 88.551498 26.101877 87.48858 25.531148 85.158536 24.630546 L 84.860081 24.515353 C 81.278621 23.138271 79.702569 22.342391 78.06892 20.724451 C 76.430036 19.101274 75.628919 17.546167 74.236129 13.996123 L 74.1157 13.702904 C 73.209863 11.393804 72.633897 10.346594 72.188833 10.095263 C 71.790893 9.864877 70.607545 9.885821 68.287973 10.231401 L 67.910977 10.288997 C 66.539131 10.493203 65.921277 10.57698 65.182994 10.650285 C 63.203766 10.844019 61.554409 10.781186 59.962649 10.362302 C 57.768743 9.7811 56.31312 8.843847 53.35475 6.487623 C 51.129427 4.723073 50.097925 4.084274 49.501015 4.084274 C 49.024534 4.084274 48.076809 4.597408 46.584533 5.754575 C 46.364619 5.922129 46.139469 6.094919 45.814834 6.356721 C 42.68891 8.843847 41.233287 9.7811 39.039381 10.362302 C 36.77217 10.959212 34.991912 10.870199 31.164357 10.299469 C 28.44161 9.885821 27.242554 9.843933 26.813197 10.090027 C 26.347188 10.357066 25.781695 11.414749 24.7659 13.996123 C 23.37311 17.540931 22.571994 19.101274 20.93311 20.719215 C 19.430362 22.21149 17.739117 23.112091 14.854052 24.237842 C 14.655082 24.316383 14.492764 24.379216 14.136713 24.515353 L 13.843494 24.630546 C 11.51345 25.531148 10.450532 26.101877 10.199201 26.53647 C 9.968815 26.93441 9.989759 28.107286 10.335338 30.405913 L 10.392935 30.777673 C 10.597141 32.128574 10.686154 32.746429 10.759459 33.47424 C 10.953193 35.432524 10.895596 37.066172 10.46624 38.642224 C 9.879802 40.815186 8.932076 42.260337 6.554908 45.187291 C 6.162204 45.674243 5.984178 45.888922 5.816625 46.108836 C 4.643749 47.585403 4.125379 48.527892 4.125379 48.999137 C 4.125379 49.475618 4.643749 50.407635 5.806153 51.884202 C 5.978942 52.104117 6.156968 52.324031 6.418771 52.64343 C 8.932076 55.737937 9.879802 57.183088 10.46624 59.35605 C 10.89036 60.932102 10.953193 62.560514 10.759459 64.518798 C 10.686154 65.251846 10.597141 65.864464 10.413879 67.068756 C 9.989759 69.843864 9.942634 71.032448 10.193965 71.461805 C 10.450532 71.896397 11.51345 72.472363 13.838258 73.367728 L 14.136713 73.482921 C 17.723409 74.865239 19.294225 75.655883 20.93311 77.27906 C 22.571994 78.897 23.37311 80.457344 24.7659 84.002152 L 24.881094 84.300607 C 25.786931 86.60447 26.368133 87.651681 26.807961 87.908247 C 27.205901 88.133397 28.394485 88.112453 30.714057 87.766874 L 31.091053 87.714513 C 32.462898 87.505071 33.085989 87.421294 33.824272 87.347989 C 34.525903 87.279921 35.169938 87.248504 35.798264 87.248504 C 36.950196 87.248504 38.013115 87.368934 39.034145 87.635972 C 41.233287 88.217174 42.68891 89.159664 45.64728 91.510652 C 47.867366 93.280438 48.904105 93.919236 49.501015 93.919236 C 50.097925 93.919236 51.129427 93.280438 53.349514 91.510652 L 53.632261 91.285501 C 56.292176 89.180608 57.847283 88.19623 59.962649 87.635972 C 62.224624 87.039062 64.004882 87.128075 67.837673 87.704041 C 70.555184 88.112453 71.75424 88.154342 72.188833 87.908247 C 72.654841 87.641208 73.220335 86.583526 74.230893 84.007388 C 75.623683 80.457344 76.4248 78.897 78.063684 77.27906 C 79.702569 75.655883 81.273385 74.865239 84.860081 73.482921 L 85.158536 73.367728 C 87.48858 72.472363 88.546262 71.896397 88.802829 71.461805 C 89.033215 71.069101 89.012271 69.896225 88.661455 67.592361 L 88.609095 67.220602 C 88.017421 63.361631 87.928408 61.597081 88.530554 59.35605 C 89.116992 57.183088 90.064718 55.743173 92.441886 52.81622 Z M 92.51519 60.413733 C 92.112014 61.921716 92.180083 63.30927 92.677508 66.539915 C 92.71416 66.796481 92.71416 66.796481 92.745577 66.990215 C 93.253474 70.346525 93.279654 71.953994 92.373817 73.503865 C 91.436564 75.111334 90.012357 75.881033 86.661283 77.174338 L 86.357592 77.289532 C 83.310209 78.462407 82.074501 79.085498 80.980166 80.164125 C 79.891067 81.242752 79.26274 82.473224 78.079392 85.483955 C 76.634242 89.159664 75.927375 90.484385 74.257074 91.442583 C 72.612953 92.379836 71.13115 92.327476 67.219818 91.741038 C 63.957757 91.248849 62.549259 91.18078 61.030804 91.583956 C 59.64325 91.95048 58.438957 92.709708 56.213635 94.474258 L 55.936124 94.694172 C 52.804964 97.186533 51.485479 97.998121 49.501015 97.998121 C 47.516551 97.998121 46.197065 97.186533 43.065906 94.694172 C 40.557836 92.704472 39.416377 91.966188 37.971226 91.583956 C 37.321956 91.411167 36.609852 91.32739 35.798264 91.32739 C 35.316547 91.32739 34.803414 91.358806 34.232684 91.416403 C 33.583414 91.479235 33.012684 91.55254 31.871224 91.72533 L 31.326675 91.809107 C 27.938949 92.306532 26.310536 92.337948 24.744956 91.442583 C 23.12178 90.515802 22.346844 89.102067 21.037831 85.78241 L 20.922638 85.483955 C 19.73929 82.467988 19.105727 81.242752 18.016628 80.164125 C 16.927529 79.085498 15.686585 78.462407 12.644438 77.289532 L 12.340747 77.174338 C 8.989673 75.875797 7.56023 75.106097 6.622977 73.503865 C 5.675251 71.880689 5.732848 70.414594 6.324522 66.539915 C 6.51302 65.319914 6.59156 64.754421 6.654393 64.115622 C 6.806239 62.607639 6.759114 61.439999 6.481603 60.413733 C 6.099371 58.98429 5.350616 57.848067 3.339972 55.371414 C 2.931559 54.863517 2.743061 54.63313 2.5598 54.397508 C 0.826666 52.203602 -0.000630286 50.716563 -0.000630286 48.999137 C -0.000630286 47.281712 0.826666 45.794673 2.565036 43.59553 C 2.748298 43.359908 2.931559 43.129522 3.203834 42.79965 C 5.350616 40.150208 6.099371 39.01922 6.481603 37.584542 C 6.759114 36.558275 6.806239 35.390635 6.654393 33.877416 C 6.59156 33.238618 6.51302 32.673124 6.34023 31.542136 L 6.256453 31.008059 C 5.748556 27.656985 5.71714 26.044281 6.628213 24.494409 C 7.565466 22.892177 8.989673 22.122477 12.340747 20.823936 L 12.644438 20.708743 L 13.340833 20.441704 C 15.733709 19.504451 17.021778 18.818528 18.016628 17.83415 C 19.105727 16.755523 19.73929 15.530286 20.922638 12.51432 C 22.367788 8.838611 23.074655 7.513889 24.744956 6.555691 C 26.389077 5.618438 27.87088 5.670798 31.782212 6.262472 C 35.044273 6.749425 36.447535 6.817494 37.971226 6.419554 C 39.416377 6.032086 40.563072 5.299039 43.065906 3.304102 C 43.573803 2.900926 43.804189 2.717665 44.045048 2.534403 C 46.265134 0.816977 47.762645 0.000153022 49.501015 0.000153022 C 51.485479 0.000153022 52.804964 0.816977 55.936124 3.309339 C 58.438957 5.299039 59.585653 6.037322 61.030804 6.419554 C 62.067542 6.691829 63.25089 6.733717 64.774582 6.587108 C 65.423852 6.524275 65.994582 6.445734 67.136042 6.272945 L 67.675355 6.194404 C 71.063081 5.691743 72.686258 5.660326 74.257074 6.560927 C 75.875014 7.487709 76.655186 8.901443 77.958963 12.215865 L 78.079392 12.51432 C 79.26274 15.530286 79.896303 16.755523 80.985402 17.83415 C 82.074501 18.912777 83.315445 19.541103 86.357592 20.713979 L 86.656047 20.829172 C 90.012357 22.122477 91.436564 22.892177 92.373817 24.494409 C 93.326779 26.117585 93.269182 27.588916 92.677508 31.463596 C 92.48901 32.683596 92.410469 33.24909 92.347637 33.887888 C 92.195791 35.395871 92.23768 36.563511 92.51519 37.589778 C 92.88695 38.961624 93.651414 40.155444 95.436908 42.354586 L 95.656822 42.626861 C 98.175364 45.73184 98.997424 47.035617 98.997424 48.999137 C 98.997424 50.962657 98.175364 52.27167 95.662058 55.371414 C 93.646178 57.848067 92.902658 58.98429 92.51519 60.413733 Z M 92.51519 60.413733 " stroke="#434a54" stroke-width="1" stroke-opacity="1" stroke-miterlimit="4"/></g><path fill="#9440dd" d="M 61.996094 38.285156 C 61.996094 39.042969 61.957031 39.796875 61.882812 40.550781 C 61.804688 41.304688 61.695312 42.054688 61.542969 42.796875 C 61.394531 43.539062 61.207031 44.273438 60.984375 45 C 60.761719 45.722656 60.5 46.4375 60.207031 47.136719 C 59.910156 47.835938 59.582031 48.519531 59.21875 49.1875 C 58.859375 49.855469 58.460938 50.503906 58.035156 51.132812 C 57.605469 51.765625 57.148438 52.371094 56.660156 52.957031 C 56.171875 53.542969 55.65625 54.101562 55.113281 54.640625 C 54.566406 55.175781 54 55.683594 53.402344 56.164062 C 52.808594 56.644531 52.191406 57.09375 51.550781 57.515625 C 50.910156 57.9375 50.25 58.324219 49.574219 58.683594 C 48.894531 59.039062 48.199219 59.363281 47.488281 59.652344 C 46.777344 59.941406 46.054688 60.195312 45.316406 60.417969 C 44.582031 60.636719 43.835938 60.820312 43.078125 60.96875 C 42.324219 61.117188 41.566406 61.226562 40.796875 61.300781 C 40.03125 61.375 39.265625 61.414062 38.496094 61.414062 C 37.726562 61.414062 36.957031 61.375 36.191406 61.300781 C 35.425781 61.226562 34.664062 61.117188 33.910156 60.96875 C 33.15625 60.820312 32.410156 60.636719 31.671875 60.417969 C 30.9375 60.195312 30.214844 59.941406 29.503906 59.652344 C 28.792969 59.363281 28.097656 59.039062 27.417969 58.683594 C 26.738281 58.324219 26.078125 57.9375 25.4375 57.515625 C 24.800781 57.09375 24.183594 56.644531 23.585938 56.164062 C 22.992188 55.683594 22.421875 55.175781 21.878906 54.640625 C 21.335938 54.101562 20.816406 53.542969 20.328125 52.957031 C 19.839844 52.371094 19.382812 51.765625 18.957031 51.132812 C 18.527344 50.503906 18.132812 49.855469 17.769531 49.1875 C 17.40625 48.519531 17.078125 47.835938 16.785156 47.136719 C 16.488281 46.4375 16.230469 45.722656 16.007812 45 C 15.785156 44.273438 15.597656 43.539062 15.445312 42.796875 C 15.296875 42.054688 15.183594 41.304688 15.109375 40.550781 C 15.03125 39.796875 14.996094 39.042969 14.996094 38.285156 C 14.996094 37.527344 15.03125 36.773438 15.109375 36.019531 C 15.183594 35.265625 15.296875 34.515625 15.445312 33.773438 C 15.597656 33.03125 15.785156 32.296875 16.007812 31.574219 C 16.230469 30.847656 16.488281 30.136719 16.785156 29.433594 C 17.078125 28.734375 17.40625 28.050781 17.769531 27.382812 C 18.132812 26.714844 18.527344 26.066406 18.957031 25.4375 C 19.382812 24.808594 19.839844 24.199219 20.328125 23.613281 C 20.816406 23.027344 21.335938 22.46875 21.878906 21.933594 C 22.421875 21.398438 22.992188 20.890625 23.585938 20.410156 C 24.183594 19.929688 24.800781 19.476562 25.4375 19.054688 C 26.078125 18.636719 26.738281 18.246094 27.417969 17.890625 C 28.097656 17.53125 28.792969 17.210938 29.503906 16.917969 C 30.214844 16.628906 30.9375 16.375 31.671875 16.15625 C 32.410156 15.933594 33.15625 15.75 33.910156 15.601562 C 34.664062 15.457031 35.425781 15.34375 36.191406 15.269531 C 36.957031 15.195312 37.726562 15.160156 38.496094 15.160156 C 39.265625 15.160156 40.03125 15.195312 40.796875 15.269531 C 41.566406 15.34375 42.324219 15.457031 43.078125 15.601562 C 43.835938 15.75 44.582031 15.933594 45.316406 16.15625 C 46.054688 16.375 46.777344 16.628906 47.488281 16.917969 C 48.199219 17.210938 48.894531 17.53125 49.574219 17.890625 C 50.25 18.246094 50.910156 18.636719 51.550781 19.054688 C 52.191406 19.476562 52.808594 19.929688 53.402344 20.410156 C 54 20.890625 54.566406 21.398438 55.113281 21.933594 C 55.65625 22.46875 56.171875 23.027344 56.660156 23.613281 C 57.148438 24.199219 57.605469 24.808594 58.035156 25.4375 C 58.460938 26.066406 58.859375 26.714844 59.21875 27.382812 C 59.582031 28.050781 59.910156 28.734375 60.207031 29.433594 C 60.5 30.136719 60.761719 30.847656 60.984375 31.574219 C 61.207031 32.296875 61.394531 33.03125 61.542969 33.773438 C 61.695312 34.515625 61.804688 35.265625 61.882812 36.019531 C 61.957031 36.773438 61.996094 37.527344 61.996094 38.285156 Z M 61.996094 38.285156 " fill-opacity="1" fill-rule="nonzero"/><path fill="#ffffff" d="M 50.09375 24.945312 C 50.253906 24.730469 50.449219 24.550781 50.683594 24.410156 C 50.914062 24.269531 51.160156 24.179688 51.429688 24.136719 C 51.695312 24.09375 51.960938 24.105469 52.222656 24.167969 C 52.488281 24.230469 52.726562 24.339844 52.949219 24.496094 C 53.167969 24.65625 53.347656 24.847656 53.488281 25.074219 C 53.628906 25.304688 53.722656 25.550781 53.761719 25.816406 C 53.804688 26.082031 53.796875 26.347656 53.730469 26.609375 C 53.667969 26.871094 53.558594 27.109375 53.398438 27.328125 L 35.601562 51.625 C 35.4375 51.847656 35.234375 52.03125 34.996094 52.171875 C 34.757812 52.316406 34.5 52.40625 34.222656 52.441406 C 33.949219 52.480469 33.675781 52.460938 33.410156 52.386719 C 33.140625 52.316406 32.898438 52.191406 32.679688 52.023438 L 23.230469 44.582031 C 23.015625 44.417969 22.84375 44.214844 22.714844 43.980469 C 22.582031 43.746094 22.5 43.496094 22.46875 43.230469 C 22.4375 42.960938 22.460938 42.699219 22.535156 42.441406 C 22.609375 42.183594 22.730469 41.949219 22.898438 41.738281 C 23.066406 41.527344 23.269531 41.355469 23.507812 41.226562 C 23.742188 41.09375 23.996094 41.015625 24.265625 40.984375 C 24.535156 40.953125 24.796875 40.976562 25.058594 41.046875 C 25.316406 41.121094 25.554688 41.242188 25.765625 41.410156 L 33.550781 47.535156 Z M 50.09375 24.945312 " fill-opacity="1" fill-rule="nonzero"/><path fill="#434a54" d="M 38.496094 13.667969 C 39.347656 13.667969 40.039062 14.347656 40.039062 15.1875 C 40.039062 16.027344 39.347656 16.707031 38.496094 16.707031 C 26.398438 16.707031 16.589844 26.367188 16.589844 38.285156 C 16.589844 50.203125 26.398438 59.867188 38.496094 59.867188 C 50.59375 59.867188 60.402344 50.203125 60.402344 38.285156 C 60.402344 37.445312 61.09375 36.765625 61.945312 36.765625 C 62.796875 36.765625 63.488281 37.445312 63.488281 38.285156 C 63.488281 51.882812 52.296875 62.90625 38.496094 62.90625 C 24.691406 62.90625 13.503906 51.882812 13.503906 38.285156 C 13.503906 24.6875 24.691406 13.667969 38.496094 13.667969 Z M 38.496094 13.667969 " fill-opacity="1" fill-rule="nonzero"/><g clip-path="url(#3d67e242fc)"><path fill="#5271ff" d="M 56.371094 72.757812 C 56.371094 71.847656 57.128906 71.109375 58.0625 71.109375 C 59 71.109375 59.757812 71.847656 59.757812 72.757812 L 59.757812 88.117188 C 59.757812 89.175781 58.742188 89.957031 57.679688 89.71875 L 38.644531 85.417969 L 19.304688 89.71875 C 18.246094 89.957031 17.234375 89.171875 17.234375 88.117188 L 17.234375 77.875 C 17.234375 76.96875 17.992188 76.230469 18.925781 76.230469 C 19.863281 76.230469 20.621094 76.96875 20.621094 77.875 L 20.621094 86.050781 L 38.269531 82.125 C 38.523438 82.066406 38.777344 82.066406 39.03125 82.125 L 56.371094 86.042969 Z M 19.097656 71.109375 C 18.609375 71.109375 18.128906 71.308594 17.78125 71.65625 C 17.417969 72.023438 17.234375 72.464844 17.234375 72.976562 C 17.234375 73.464844 17.433594 73.949219 17.78125 74.296875 C 18.128906 74.644531 18.609375 74.839844 19.097656 74.839844 C 19.589844 74.839844 20.070312 74.644531 20.417969 74.296875 C 20.765625 73.949219 20.964844 73.46875 20.964844 72.976562 C 20.960938 72.464844 20.78125 72.023438 20.417969 71.65625 C 20.050781 71.296875 19.613281 71.113281 19.097656 71.109375 Z M 19.097656 71.109375 " fill-opacity="1" fill-rule="nonzero"/></g><path fill="#434a54" d="M 44.464844 13.667969 C 43.972656 13.667969 43.492188 13.867188 43.144531 14.214844 C 42.78125 14.578125 42.601562 15.019531 42.597656 15.535156 C 42.597656 16.023438 42.796875 16.503906 43.144531 16.851562 C 43.492188 17.199219 43.972656 17.398438 44.464844 17.398438 C 44.953125 17.398438 45.4375 17.199219 45.78125 16.851562 C 46.128906 16.503906 46.328125 16.023438 46.328125 15.535156 C 46.328125 15.019531 46.144531 14.578125 45.78125 14.214844 C 45.417969 13.851562 44.976562 13.667969 44.464844 13.667969 Z M 44.464844 13.667969 " fill-opacity="1" fill-rule="nonzero"/></svg>