<svg xmlns="http://www.w3.org/2000/svg" xmlns:xlink="http://www.w3.org/1999/xlink" width="126" zoomAndPan="magnify" viewBox="0 0 94.5 89.999999" height="120" preserveAspectRatio="xMidYMid meet" version="1.0"><defs><clipPath id="6ae10d624a"><path d="M 4 20 L 94 20 L 94 89.761719 L 4 89.761719 Z M 4 20 " clip-rule="nonzero"/></clipPath><clipPath id="9b46cd66a1"><path d="M 0 0.304688 L 37 0.304688 L 37 49 L 0 49 Z M 0 0.304688 " clip-rule="nonzero"/></clipPath></defs><path fill="#9440dd" d="M 26.5 87.78125 L 9.773438 87.78125 C 9.308594 87.78125 8.867188 87.691406 8.4375 87.515625 C 8.011719 87.339844 7.632812 87.085938 7.308594 86.757812 C 6.980469 86.433594 6.730469 86.054688 6.550781 85.628906 C 6.375 85.203125 6.289062 84.757812 6.289062 84.296875 L 6.289062 55.894531 C 6.289062 55.429688 6.375 54.988281 6.550781 54.558594 C 6.730469 54.132812 6.980469 53.753906 7.308594 53.429688 C 7.632812 53.101562 8.011719 52.851562 8.4375 52.671875 C 8.863281 52.496094 9.308594 52.40625 9.773438 52.40625 L 26.5 52.40625 C 26.960938 52.40625 27.40625 52.496094 27.832031 52.671875 C 28.261719 52.847656 28.636719 53.101562 28.964844 53.429688 C 29.292969 53.753906 29.542969 54.132812 29.71875 54.558594 C 29.898438 54.984375 29.984375 55.429688 29.984375 55.894531 L 29.984375 84.296875 C 29.984375 84.757812 29.898438 85.203125 29.71875 85.628906 C 29.542969 86.054688 29.289062 86.433594 28.964844 86.757812 C 28.636719 87.085938 28.261719 87.339844 27.832031 87.515625 C 27.40625 87.691406 26.960938 87.78125 26.5 87.78125 Z M 26.5 87.78125 " fill-opacity="1" fill-rule="nonzero"/><path fill="#ffffff" d="M 82.117188 62.6875 L 76.660156 62.6875 C 76.9375 62.6875 77.207031 62.660156 77.476562 62.609375 C 77.746094 62.554688 78.007812 62.476562 78.261719 62.371094 C 78.515625 62.265625 78.757812 62.136719 78.984375 61.984375 C 79.214844 61.832031 79.425781 61.65625 79.617188 61.464844 C 79.8125 61.269531 79.984375 61.058594 80.136719 60.832031 C 80.292969 60.601562 80.421875 60.359375 80.523438 60.105469 C 80.628906 59.851562 80.710938 59.59375 80.761719 59.324219 C 80.816406 59.054688 80.84375 58.78125 80.84375 58.507812 C 80.84375 58.230469 80.816406 57.960938 80.761719 57.691406 C 80.710938 57.421875 80.628906 57.160156 80.523438 56.90625 C 80.421875 56.652344 80.292969 56.410156 80.136719 56.183594 C 79.984375 55.953125 79.8125 55.742188 79.617188 55.550781 C 79.425781 55.355469 79.214844 55.183594 78.984375 55.027344 C 78.757812 54.875 78.515625 54.746094 78.261719 54.644531 C 78.007812 54.539062 77.746094 54.457031 77.476562 54.40625 C 77.207031 54.351562 76.9375 54.324219 76.660156 54.324219 L 46.441406 54.324219 L 47.898438 52.457031 L 47.898438 43.664062 L 39.414062 46.785156 L 29.984375 56.242188 L 29.984375 81.855469 L 34.789062 86.046875 C 35.429688 86.605469 36.148438 87.035156 36.945312 87.332031 C 37.742188 87.632812 38.566406 87.78125 39.414062 87.78125 L 72.347656 87.78125 C 74.691406 87.78125 76.667969 85.863281 76.625 83.519531 C 76.621094 83.246094 76.589844 82.980469 76.53125 82.714844 C 76.472656 82.449219 76.390625 82.191406 76.285156 81.941406 C 76.175781 81.695312 76.046875 81.457031 75.890625 81.234375 C 75.738281 81.007812 75.566406 80.804688 75.371094 80.613281 C 75.179688 80.421875 74.96875 80.253906 74.742188 80.105469 C 74.515625 79.957031 74.277344 79.828125 74.023438 79.726562 C 73.773438 79.625 73.515625 79.546875 73.25 79.496094 C 72.984375 79.441406 72.714844 79.417969 72.441406 79.417969 L 78.292969 79.417969 C 80.636719 79.417969 82.613281 77.496094 82.570312 75.152344 C 82.5625 74.882812 82.53125 74.613281 82.476562 74.347656 C 82.417969 74.085938 82.335938 73.828125 82.226562 73.578125 C 82.121094 73.328125 81.988281 73.09375 81.835938 72.871094 C 81.683594 72.644531 81.507812 72.4375 81.316406 72.25 C 81.121094 72.058594 80.910156 71.890625 80.683594 71.742188 C 80.457031 71.59375 80.21875 71.464844 79.96875 71.363281 C 79.71875 71.261719 79.460938 71.183594 79.191406 71.132812 C 78.925781 71.078125 78.660156 71.054688 78.386719 71.054688 L 82.117188 71.054688 C 82.390625 71.054688 82.660156 71.027344 82.929688 70.972656 C 83.199219 70.917969 83.460938 70.839844 83.714844 70.734375 C 83.96875 70.628906 84.210938 70.5 84.4375 70.347656 C 84.667969 70.195312 84.878906 70.023438 85.074219 69.828125 C 85.265625 69.632812 85.441406 69.421875 85.59375 69.195312 C 85.746094 68.964844 85.875 68.726562 85.980469 68.472656 C 86.085938 68.21875 86.164062 67.957031 86.21875 67.6875 C 86.269531 67.417969 86.296875 67.144531 86.296875 66.871094 C 86.296875 66.597656 86.269531 66.324219 86.21875 66.054688 C 86.164062 65.785156 86.085938 65.523438 85.980469 65.269531 C 85.875 65.015625 85.746094 64.773438 85.59375 64.546875 C 85.441406 64.320312 85.265625 64.105469 85.074219 63.914062 C 84.878906 63.71875 84.667969 63.546875 84.4375 63.394531 C 84.210938 63.242188 83.96875 63.113281 83.714844 63.007812 C 83.460938 62.902344 83.199219 62.820312 82.929688 62.769531 C 82.660156 62.714844 82.390625 62.6875 82.117188 62.6875 Z M 82.117188 62.6875 " fill-opacity="1" fill-rule="nonzero"/><path fill="#434a54" d="M 18.136719 79.066406 C 17.675781 79.066406 17.226562 79.253906 16.902344 79.578125 C 16.5625 79.917969 16.394531 80.328125 16.390625 80.808594 C 16.390625 81.269531 16.578125 81.71875 16.902344 82.042969 C 17.246094 82.382812 17.65625 82.550781 18.136719 82.554688 C 18.59375 82.554688 19.042969 82.367188 19.367188 82.042969 C 19.707031 81.703125 19.875 81.292969 19.878906 80.808594 C 19.878906 80.351562 19.691406 79.902344 19.367188 79.578125 C 19.027344 79.238281 18.617188 79.070312 18.136719 79.066406 Z M 85.128906 33.90625 C 84.667969 33.90625 84.21875 34.09375 83.894531 34.417969 C 83.558594 34.757812 83.386719 35.167969 83.386719 35.648438 C 83.386719 36.109375 83.570312 36.558594 83.894531 36.878906 C 84.234375 37.21875 84.648438 37.390625 85.128906 37.390625 C 85.585938 37.390625 86.035156 37.207031 86.359375 36.878906 C 86.699219 36.539062 86.871094 36.128906 86.871094 35.648438 C 86.871094 35.167969 86.699219 34.757812 86.359375 34.417969 C 86.019531 34.078125 85.609375 33.90625 85.128906 33.90625 Z M 85.128906 33.90625 " fill-opacity="1" fill-rule="nonzero"/><g clip-path="url(#6ae10d624a)"><path fill="#434a54" d="M 93.25 20.929688 C 92.910156 20.589844 92.5 20.417969 92.015625 20.417969 L 49.152344 20.421875 C 48.921875 20.421875 48.699219 20.464844 48.484375 20.554688 C 48.269531 20.640625 48.082031 20.769531 47.917969 20.929688 C 47.753906 21.09375 47.628906 21.285156 47.542969 21.496094 C 47.453125 21.710938 47.410156 21.933594 47.410156 22.164062 L 47.410156 41.503906 C 45.007812 42.347656 42.6875 43.367188 40.441406 44.566406 C 38.253906 45.734375 36.972656 46.789062 36.347656 47.410156 L 30.8125 52.945312 C 30.328125 52.234375 29.703125 51.675781 28.9375 51.269531 C 28.175781 50.867188 27.363281 50.664062 26.5 50.664062 L 9.773438 50.664062 C 9.429688 50.664062 9.089844 50.699219 8.753906 50.765625 C 8.417969 50.832031 8.089844 50.933594 7.773438 51.066406 C 7.457031 51.195312 7.15625 51.355469 6.871094 51.546875 C 6.585938 51.738281 6.320312 51.957031 6.078125 52.199219 C 5.835938 52.441406 5.617188 52.703125 5.425781 52.988281 C 5.238281 53.273438 5.074219 53.574219 4.945312 53.894531 C 4.8125 54.210938 4.714844 54.535156 4.644531 54.875 C 4.578125 55.210938 4.546875 55.550781 4.546875 55.890625 L 4.546875 84.296875 C 4.546875 84.636719 4.578125 84.976562 4.644531 85.316406 C 4.714844 85.652344 4.8125 85.976562 4.945312 86.292969 C 5.074219 86.613281 5.238281 86.914062 5.425781 87.199219 C 5.617188 87.484375 5.835938 87.746094 6.078125 87.988281 C 6.320312 88.234375 6.582031 88.449219 6.867188 88.640625 C 7.15625 88.832031 7.457031 88.992188 7.773438 89.125 C 8.089844 89.253906 8.414062 89.355469 8.753906 89.421875 C 9.089844 89.488281 9.429688 89.523438 9.773438 89.523438 L 26.5 89.523438 C 28.949219 89.523438 31.007812 87.832031 31.574219 85.554688 L 33.644531 87.359375 C 34.445312 88.058594 35.339844 88.59375 36.335938 88.964844 C 37.328125 89.335938 38.355469 89.523438 39.417969 89.523438 L 92.019531 89.523438 C 92.25 89.523438 92.472656 89.480469 92.683594 89.390625 C 92.898438 89.300781 93.085938 89.175781 93.25 89.011719 C 93.414062 88.847656 93.539062 88.660156 93.628906 88.445312 C 93.714844 88.234375 93.761719 88.011719 93.761719 87.78125 L 93.761719 22.160156 C 93.761719 21.699219 93.578125 21.257812 93.25 20.929688 Z M 26.5 86.039062 L 9.773438 86.039062 C 8.8125 86.039062 8.027344 85.257812 8.027344 84.296875 L 8.027344 55.890625 C 8.027344 54.929688 8.8125 54.148438 9.773438 54.148438 L 16.394531 54.148438 L 16.394531 74.222656 C 16.402344 74.449219 16.449219 74.667969 16.539062 74.875 C 16.632812 75.082031 16.757812 75.265625 16.921875 75.421875 C 17.085938 75.582031 17.269531 75.703125 17.480469 75.789062 C 17.691406 75.871094 17.910156 75.914062 18.136719 75.914062 C 18.363281 75.914062 18.582031 75.871094 18.792969 75.789062 C 19 75.703125 19.1875 75.582031 19.351562 75.421875 C 19.511719 75.265625 19.640625 75.082031 19.730469 74.875 C 19.824219 74.667969 19.871094 74.449219 19.878906 74.222656 L 19.878906 54.148438 L 26.5 54.148438 C 27.460938 54.148438 28.242188 54.933594 28.242188 55.894531 L 28.242188 84.296875 C 28.242188 85.257812 27.460938 86.039062 26.5 86.039062 Z M 35.933594 84.734375 L 31.726562 81.0625 L 31.726562 56.960938 L 37.371094 51.238281 C 38.96875 49.851562 40.304688 48.859375 41.382812 48.25 C 43.648438 46.972656 45.65625 46.078125 47.402344 45.578125 L 47.402344 50.261719 L 45.714844 54.753906 C 45.816406 55.140625 46.023438 55.453125 46.335938 55.699219 C 46.648438 55.941406 47.007812 56.0625 47.402344 56.066406 L 76.660156 56.066406 C 76.984375 56.066406 77.296875 56.128906 77.59375 56.253906 C 77.894531 56.375 78.15625 56.554688 78.386719 56.78125 C 78.613281 57.011719 78.789062 57.273438 78.914062 57.574219 C 79.039062 57.871094 79.101562 58.183594 79.101562 58.507812 C 79.101562 58.828125 79.039062 59.140625 78.914062 59.441406 C 78.789062 59.738281 78.613281 60.003906 78.386719 60.230469 C 78.15625 60.460938 77.894531 60.636719 77.59375 60.757812 C 77.296875 60.882812 76.984375 60.945312 76.660156 60.945312 L 59.105469 60.945312 C 58.878906 60.949219 58.660156 61 58.453125 61.089844 C 58.242188 61.179688 58.058594 61.304688 57.898438 61.46875 C 57.738281 61.632812 57.617188 61.820312 57.53125 62.03125 C 57.441406 62.242188 57.398438 62.460938 57.398438 62.6875 C 57.398438 62.917969 57.441406 63.136719 57.53125 63.347656 C 57.617188 63.558594 57.738281 63.746094 57.898438 63.910156 C 58.058594 64.070312 58.242188 64.199219 58.453125 64.289062 C 58.660156 64.378906 58.878906 64.425781 59.105469 64.429688 L 82.117188 64.429688 C 82.4375 64.429688 82.75 64.492188 83.050781 64.617188 C 83.347656 64.742188 83.613281 64.917969 83.839844 65.144531 C 84.070312 65.375 84.246094 65.640625 84.367188 65.9375 C 84.492188 66.234375 84.554688 66.546875 84.554688 66.871094 C 84.554688 67.195312 84.492188 67.503906 84.367188 67.804688 C 84.246094 68.101562 84.070312 68.367188 83.839844 68.59375 C 83.613281 68.824219 83.347656 69 83.050781 69.125 C 82.75 69.246094 82.4375 69.308594 82.117188 69.308594 L 59.105469 69.308594 C 58.878906 69.316406 58.660156 69.363281 58.449219 69.453125 C 58.242188 69.542969 58.054688 69.671875 57.898438 69.832031 C 57.738281 69.996094 57.613281 70.183594 57.527344 70.394531 C 57.441406 70.605469 57.398438 70.824219 57.398438 71.054688 C 57.398438 71.28125 57.441406 71.5 57.527344 71.710938 C 57.613281 71.921875 57.738281 72.109375 57.898438 72.273438 C 58.054688 72.433594 58.242188 72.5625 58.449219 72.652344 C 58.660156 72.742188 58.878906 72.789062 59.105469 72.796875 L 78.386719 72.796875 C 78.710938 72.796875 79.019531 72.859375 79.320312 72.980469 C 79.617188 73.105469 79.882812 73.28125 80.109375 73.511719 C 80.339844 73.738281 80.515625 74.003906 80.640625 74.300781 C 80.761719 74.601562 80.824219 74.910156 80.824219 75.234375 C 80.824219 75.558594 80.761719 75.871094 80.640625 76.167969 C 80.515625 76.464844 80.339844 76.730469 80.109375 76.960938 C 79.882812 77.1875 79.617188 77.363281 79.320312 77.488281 C 79.019531 77.613281 78.710938 77.675781 78.386719 77.675781 L 59.105469 77.675781 C 58.878906 77.679688 58.660156 77.726562 58.453125 77.816406 C 58.242188 77.90625 58.058594 78.035156 57.898438 78.199219 C 57.738281 78.359375 57.617188 78.546875 57.53125 78.757812 C 57.441406 78.96875 57.398438 79.1875 57.398438 79.417969 C 57.398438 79.644531 57.441406 79.863281 57.53125 80.074219 C 57.617188 80.285156 57.738281 80.472656 57.898438 80.636719 C 58.058594 80.800781 58.242188 80.925781 58.453125 81.015625 C 58.660156 81.109375 58.878906 81.15625 59.105469 81.160156 L 72.445312 81.160156 C 72.765625 81.160156 73.078125 81.222656 73.375 81.347656 C 73.675781 81.46875 73.9375 81.644531 74.167969 81.875 C 74.394531 82.105469 74.574219 82.367188 74.695312 82.667969 C 74.820312 82.964844 74.882812 83.277344 74.882812 83.597656 C 74.882812 83.921875 74.820312 84.234375 74.695312 84.53125 C 74.574219 84.832031 74.394531 85.09375 74.167969 85.324219 C 73.9375 85.550781 73.675781 85.726562 73.375 85.851562 C 73.078125 85.976562 72.765625 86.039062 72.445312 86.039062 L 39.414062 86.039062 C 38.09375 86.039062 36.933594 85.601562 35.933594 84.734375 Z M 77.839844 86.039062 C 78.179688 85.292969 78.367188 84.46875 78.367188 83.597656 C 78.367188 82.746094 78.191406 81.933594 77.839844 81.160156 L 78.386719 81.160156 C 81.652344 81.160156 84.3125 78.5 84.3125 75.234375 C 84.3125 74.28125 84.085938 73.382812 83.683594 72.582031 C 86.191406 71.894531 88.039062 69.59375 88.039062 66.871094 C 88.042969 65.5625 87.652344 64.386719 86.871094 63.339844 L 86.871094 41.253906 C 86.867188 41.027344 86.816406 40.808594 86.726562 40.597656 C 86.636719 40.390625 86.511719 40.207031 86.347656 40.046875 C 86.183594 39.886719 85.996094 39.765625 85.785156 39.675781 C 85.574219 39.589844 85.355469 39.546875 85.128906 39.546875 C 84.898438 39.546875 84.679688 39.589844 84.46875 39.675781 C 84.257812 39.765625 84.070312 39.886719 83.910156 40.046875 C 83.746094 40.207031 83.617188 40.390625 83.527344 40.597656 C 83.4375 40.808594 83.390625 41.027344 83.386719 41.253906 L 83.386719 61.085938 C 82.96875 60.992188 82.542969 60.945312 82.117188 60.945312 C 82.394531 60.199219 82.585938 59.375 82.585938 58.507812 C 82.585938 55.238281 79.929688 52.582031 76.660156 52.582031 L 50.894531 52.582031 L 50.894531 24.644531 L 90.273438 24.644531 L 90.273438 86.039062 Z M 77.839844 86.039062 " fill-opacity="1" fill-rule="nonzero"/></g><path fill="#434a54" d="M 56.6875 24.140625 L 66.371094 24.140625 L 66.371094 53.191406 L 56.6875 53.191406 Z M 56.6875 24.140625 " fill-opacity="1" fill-rule="evenodd"/><g clip-path="url(#9b46cd66a1)"><path fill="#5271ff" d="M 19.742188 47.441406 C 19.566406 47.648438 19.351562 47.808594 19.105469 47.921875 C 18.855469 48.039062 18.597656 48.09375 18.324219 48.09375 C 18.050781 48.09375 17.789062 48.039062 17.542969 47.921875 C 17.292969 47.808594 17.082031 47.648438 16.90625 47.441406 C 5.949219 34.558594 0.445312 25.046875 0.445312 18.554688 C 0.445312 8.683594 8.449219 0.679688 18.324219 0.679688 C 28.195312 0.679688 36.199219 8.683594 36.199219 18.554688 C 36.199219 25.046875 30.695312 34.558594 19.742188 47.441406 Z M 32.476562 18.554688 C 32.476562 10.738281 26.140625 4.402344 18.324219 4.402344 C 10.507812 4.402344 4.171875 10.738281 4.171875 18.554688 C 4.171875 23.613281 8.871094 31.972656 18.324219 43.339844 C 27.773438 31.972656 32.476562 23.613281 32.476562 18.554688 Z M 32.476562 18.554688 " fill-opacity="1" fill-rule="nonzero"/></g><path fill="#5271ff" d="M 18.324219 27.308594 C 13.488281 27.308594 9.570312 23.390625 9.570312 18.554688 C 9.570312 13.722656 13.488281 9.804688 18.324219 9.804688 C 23.15625 9.804688 27.074219 13.722656 27.074219 18.554688 C 27.074219 23.390625 23.15625 27.308594 18.324219 27.308594 Z M 18.324219 23.957031 C 18.679688 23.957031 19.027344 23.921875 19.378906 23.851562 C 19.726562 23.785156 20.0625 23.679688 20.390625 23.546875 C 20.71875 23.410156 21.03125 23.242188 21.324219 23.046875 C 21.621094 22.851562 21.894531 22.625 22.144531 22.375 C 22.394531 22.125 22.617188 21.851562 22.816406 21.558594 C 23.011719 21.261719 23.179688 20.949219 23.316406 20.621094 C 23.449219 20.296875 23.554688 19.957031 23.621094 19.609375 C 23.691406 19.261719 23.726562 18.910156 23.726562 18.554688 C 23.726562 18.199219 23.691406 17.851562 23.621094 17.5 C 23.554688 17.152344 23.449219 16.816406 23.316406 16.488281 C 23.179688 16.160156 23.011719 15.847656 22.816406 15.554688 C 22.617188 15.257812 22.394531 14.988281 22.144531 14.734375 C 21.894531 14.484375 21.621094 14.261719 21.324219 14.066406 C 21.03125 13.867188 20.71875 13.703125 20.390625 13.566406 C 20.0625 13.429688 19.726562 13.328125 19.378906 13.257812 C 19.027344 13.191406 18.679688 13.15625 18.324219 13.15625 C 17.96875 13.15625 17.617188 13.191406 17.269531 13.257812 C 16.921875 13.328125 16.585938 13.429688 16.257812 13.566406 C 15.929688 13.703125 15.617188 13.871094 15.324219 14.066406 C 15.03125 14.261719 14.757812 14.488281 14.507812 14.738281 C 14.253906 14.988281 14.03125 15.261719 13.835938 15.554688 C 13.636719 15.851562 13.472656 16.164062 13.335938 16.488281 C 13.199219 16.816406 13.097656 17.15625 13.027344 17.503906 C 12.960938 17.851562 12.925781 18.203125 12.925781 18.554688 C 12.925781 18.910156 12.960938 19.261719 13.027344 19.609375 C 13.097656 19.957031 13.199219 20.292969 13.335938 20.621094 C 13.472656 20.949219 13.636719 21.261719 13.835938 21.554688 C 14.03125 21.851562 14.253906 22.121094 14.507812 22.375 C 14.757812 22.625 15.03125 22.847656 15.324219 23.046875 C 15.617188 23.242188 15.929688 23.410156 16.257812 23.542969 C 16.585938 23.679688 16.921875 23.78125 17.269531 23.851562 C 17.617188 23.921875 17.96875 23.957031 18.324219 23.957031 Z M 18.324219 23.957031 " fill-opacity="1" fill-rule="nonzero"/></svg>