<svg xmlns="http://www.w3.org/2000/svg" xmlns:xlink="http://www.w3.org/1999/xlink" width="117" zoomAndPan="magnify" viewBox="0 0 87.75 89.999999" height="120" preserveAspectRatio="xMidYMid meet" version="1.0"><defs><clipPath id="dbe77f2805"><path d="M 0.0195312 0.128906 L 87 0.128906 L 87 68 L 0.0195312 68 Z M 0.0195312 0.128906 " clip-rule="nonzero"/></clipPath><clipPath id="5dec909f9d"><path d="M 11 40 L 76 40 L 76 89.871094 L 11 89.871094 Z M 11 40 " clip-rule="nonzero"/></clipPath></defs><path fill="#9440dd" d="M 34.832031 6.269531 L 70.511719 17.417969 L 70.511719 34.878906 L 58.707031 38.722656 L 58.707031 22.125 L 21.5625 10.285156 Z M 34.832031 6.269531 " fill-opacity="1" fill-rule="evenodd"/><g clip-path="url(#dbe77f2805)"><path fill="#434a54" d="M 86.738281 14.699219 C 86.664062 14.378906 86.5 14.105469 86.253906 13.886719 C 86.148438 13.78125 86.03125 13.6875 85.902344 13.609375 C 85.832031 13.566406 85.753906 13.527344 85.679688 13.496094 C 85.640625 13.476562 71.789062 9.054688 44.113281 0.238281 C 43.730469 0.121094 43.351562 0.121094 42.972656 0.238281 L 1.570312 13.414062 C 1.179688 13.535156 0.863281 13.761719 0.621094 14.09375 C 0.378906 14.425781 0.253906 14.792969 0.253906 15.203125 L 0.253906 60.367188 C 0.253906 61.1875 0.789062 61.914062 1.570312 62.164062 L 16.109375 67.078125 C 16.355469 67.15625 16.761719 66.0625 17.324219 63.796875 L 4.019531 58.992188 L 4.019531 16.582031 L 16.5625 12.589844 L 51.753906 23.789062 L 43.535156 26.402344 L 12.109375 16.40625 C 11.871094 16.332031 11.628906 16.304688 11.378906 16.324219 C 11.132812 16.34375 10.898438 16.414062 10.675781 16.527344 C 10.453125 16.644531 10.261719 16.796875 10.101562 16.988281 C 9.941406 17.175781 9.820312 17.390625 9.746094 17.628906 C 9.671875 17.867188 9.644531 18.109375 9.664062 18.359375 C 9.6875 18.605469 9.753906 18.84375 9.867188 19.0625 C 9.984375 19.285156 10.136719 19.476562 10.328125 19.636719 C 10.515625 19.796875 10.730469 19.917969 10.96875 19.992188 L 41.65625 29.753906 L 41.65625 52.121094 C 41.660156 52.367188 41.710938 52.601562 41.808594 52.828125 C 41.90625 53.054688 42.042969 53.253906 42.21875 53.425781 C 42.394531 53.597656 42.597656 53.730469 42.824219 53.824219 C 43.050781 53.917969 43.289062 53.964844 43.535156 53.964844 C 43.78125 53.964844 44.019531 53.917969 44.246094 53.824219 C 44.476562 53.730469 44.679688 53.597656 44.855469 53.425781 C 45.03125 53.253906 45.167969 53.054688 45.265625 52.828125 C 45.363281 52.601562 45.414062 52.367188 45.417969 52.121094 L 45.417969 29.753906 L 56.082031 26.367188 L 56.082031 38.851562 C 56.082031 38.996094 56.101562 39.144531 56.132812 39.285156 C 56.167969 39.429688 56.21875 39.566406 56.285156 39.699219 C 56.351562 39.832031 56.433594 39.953125 56.53125 40.066406 C 56.625 40.179688 56.734375 40.277344 56.851562 40.367188 C 56.972656 40.453125 57.097656 40.527344 57.234375 40.582031 C 57.371094 40.640625 57.511719 40.679688 57.65625 40.703125 C 57.804688 40.730469 57.949219 40.734375 58.097656 40.726562 C 58.246094 40.714844 58.386719 40.6875 58.53125 40.644531 L 62.917969 39.242188 C 63.15625 39.167969 63.371094 39.050781 63.5625 38.886719 C 63.753906 38.726562 63.90625 38.535156 64.019531 38.316406 C 64.136719 38.09375 64.203125 37.859375 64.226562 37.609375 C 64.246094 37.359375 64.21875 37.117188 64.144531 36.878906 C 64.066406 36.640625 63.949219 36.425781 63.789062 36.234375 C 63.628906 36.046875 63.4375 35.890625 63.214844 35.777344 C 62.992188 35.664062 62.757812 35.59375 62.507812 35.574219 C 62.257812 35.554688 62.015625 35.582031 61.777344 35.65625 L 59.839844 36.273438 L 59.839844 25.171875 L 69.5625 22.078125 L 69.5625 33.179688 L 67.425781 33.859375 C 67.210938 33.925781 67.015625 34.03125 66.839844 34.167969 C 66.660156 34.304688 66.511719 34.46875 66.394531 34.660156 C 66.277344 34.851562 66.195312 35.058594 66.148438 35.277344 C 66.105469 35.496094 66.101562 35.71875 66.132812 35.9375 C 66.167969 36.160156 66.238281 36.371094 66.347656 36.566406 C 66.457031 36.761719 66.597656 36.933594 66.765625 37.078125 C 66.9375 37.226562 67.128906 37.339844 67.335938 37.417969 C 67.546875 37.496094 67.765625 37.535156 67.988281 37.535156 C 68.179688 37.535156 68.371094 37.503906 68.554688 37.445312 L 72.003906 36.347656 C 72.398438 36.226562 72.714844 36 72.957031 35.667969 C 73.199219 35.335938 73.320312 34.964844 73.320312 34.554688 L 73.320312 20.875 L 83.054688 17.78125 L 83.054688 58.992188 L 80.609375 59.773438 C 80.363281 59.835938 80.144531 59.945312 79.941406 60.101562 C 79.742188 60.253906 79.578125 60.441406 79.453125 60.660156 C 79.328125 60.878906 79.253906 61.113281 79.222656 61.363281 C 79.191406 61.617188 79.210938 61.863281 79.277344 62.105469 C 79.347656 62.347656 79.460938 62.566406 79.617188 62.765625 C 79.773438 62.964844 79.964844 63.121094 80.1875 63.242188 C 80.40625 63.363281 80.644531 63.4375 80.894531 63.464844 C 81.144531 63.492188 81.390625 63.46875 81.632812 63.394531 C 81.65625 63.386719 82.945312 62.976562 85.5 62.164062 C 85.894531 62.039062 86.210938 61.8125 86.453125 61.480469 C 86.695312 61.148438 86.820312 60.78125 86.820312 60.367188 L 86.820312 15.207031 C 86.816406 15.035156 86.789062 14.867188 86.738281 14.703125 Z M 57.960938 21.8125 L 22.773438 10.613281 L 30.050781 8.296875 L 65.242188 19.496094 Z M 71.445312 17.523438 L 36.261719 6.320312 L 43.539062 4.007812 L 78.726562 15.207031 L 71.449219 17.523438 Z M 71.445312 17.523438 " fill-opacity="1" fill-rule="nonzero"/></g><path fill="#434a54" d="M 9.996094 47.242188 C 9.761719 47.242188 9.539062 47.285156 9.324219 47.375 C 9.109375 47.464844 8.921875 47.589844 8.757812 47.753906 C 8.589844 47.921875 8.464844 48.109375 8.375 48.324219 C 8.285156 48.539062 8.242188 48.761719 8.242188 48.996094 L 8.242188 61.726562 C 8.242188 61.960938 8.285156 62.183594 8.375 62.398438 C 8.464844 62.613281 8.589844 62.800781 8.757812 62.96875 C 8.921875 63.132812 9.109375 63.257812 9.324219 63.347656 C 9.539062 63.4375 9.761719 63.480469 9.996094 63.480469 C 10.226562 63.480469 10.453125 63.4375 10.667969 63.347656 C 10.882812 63.257812 11.070312 63.132812 11.234375 62.96875 C 11.398438 62.800781 11.527344 62.613281 11.613281 62.398438 C 11.703125 62.183594 11.75 61.960938 11.75 61.726562 L 11.75 48.996094 C 11.75 48.761719 11.703125 48.539062 11.613281 48.324219 C 11.527344 48.109375 11.398438 47.921875 11.234375 47.753906 C 11.070312 47.589844 10.882812 47.464844 10.667969 47.375 C 10.453125 47.285156 10.226562 47.242188 9.996094 47.242188 Z M 9.996094 42.011719 C 9.535156 42.011719 9.082031 42.195312 8.757812 42.523438 C 8.414062 42.867188 8.242188 43.28125 8.242188 43.765625 C 8.242188 44.222656 8.429688 44.675781 8.757812 45.003906 C 9.097656 45.34375 9.511719 45.511719 9.996094 45.511719 C 10.476562 45.511719 10.890625 45.34375 11.234375 45.003906 C 11.558594 44.675781 11.746094 44.226562 11.746094 43.765625 C 11.746094 43.300781 11.558594 42.851562 11.234375 42.523438 C 10.890625 42.183594 10.476562 42.011719 9.996094 42.011719 Z M 16.722656 63.6875 C 16.261719 63.6875 15.808594 63.875 15.484375 64.199219 C 15.140625 64.542969 14.972656 64.957031 14.96875 65.441406 C 14.96875 65.898438 15.15625 66.351562 15.484375 66.679688 C 15.828125 67.019531 16.238281 67.1875 16.722656 67.191406 C 17.203125 67.1875 17.617188 67.019531 17.960938 66.679688 C 18.285156 66.351562 18.472656 65.902344 18.472656 65.441406 C 18.472656 64.976562 18.285156 64.527344 17.960938 64.199219 C 17.617188 63.859375 17.203125 63.6875 16.722656 63.6875 Z M 16.722656 63.6875 " fill-opacity="1" fill-rule="nonzero"/><g clip-path="url(#5dec909f9d)"><path fill="#5271ff" d="M 73.644531 40.117188 C 73.398438 40.117188 73.15625 40.167969 72.925781 40.261719 C 72.695312 40.359375 72.492188 40.492188 72.316406 40.671875 C 72.140625 40.847656 72.003906 41.050781 71.90625 41.28125 C 71.8125 41.511719 71.765625 41.75 71.765625 42 L 71.765625 61.617188 C 71.753906 70.96875 64.175781 78.546875 54.828125 78.554688 L 32.246094 78.554688 C 31.996094 78.554688 31.757812 78.601562 31.527344 78.699219 C 31.296875 78.792969 31.09375 78.929688 30.914062 79.105469 C 30.738281 79.28125 30.601562 79.484375 30.507812 79.714844 C 30.410156 79.945312 30.363281 80.1875 30.363281 80.4375 L 30.363281 84.351562 L 16.710938 74.792969 L 30.363281 65.234375 L 30.363281 69.144531 C 30.363281 69.394531 30.410156 69.636719 30.507812 69.867188 C 30.601562 70.097656 30.738281 70.300781 30.914062 70.476562 C 31.089844 70.652344 31.296875 70.789062 31.527344 70.882812 C 31.757812 70.980469 31.996094 71.027344 32.246094 71.027344 L 49.183594 71.027344 C 55.414062 71.023438 60.464844 65.96875 60.472656 59.738281 L 60.472656 58.9375 C 60.46875 58.691406 60.417969 58.453125 60.320312 58.230469 C 60.222656 58.003906 60.085938 57.804688 59.910156 57.628906 C 59.734375 57.457031 59.53125 57.324219 59.300781 57.230469 C 59.074219 57.140625 58.835938 57.09375 58.589844 57.09375 C 58.34375 57.09375 58.109375 57.140625 57.878906 57.230469 C 57.652344 57.324219 57.449219 57.457031 57.273438 57.628906 C 57.097656 57.804688 56.960938 58.003906 56.863281 58.230469 C 56.765625 58.453125 56.714844 58.691406 56.710938 58.9375 L 56.710938 59.738281 C 56.710938 63.894531 53.339844 67.265625 49.183594 67.265625 L 34.128906 67.265625 L 34.128906 61.617188 C 34.128906 61.269531 34.035156 60.941406 33.855469 60.644531 C 33.671875 60.34375 33.425781 60.113281 33.113281 59.949219 C 32.804688 59.789062 32.472656 59.71875 32.125 59.742188 C 31.773438 59.765625 31.453125 59.875 31.167969 60.078125 L 12.347656 73.25 C 12.222656 73.335938 12.113281 73.4375 12.011719 73.550781 C 11.914062 73.664062 11.828125 73.789062 11.757812 73.921875 C 11.6875 74.058594 11.636719 74.199219 11.601562 74.34375 C 11.5625 74.492188 11.546875 74.640625 11.546875 74.792969 C 11.546875 74.941406 11.5625 75.09375 11.601562 75.238281 C 11.636719 75.386719 11.6875 75.527344 11.757812 75.660156 C 11.828125 75.792969 11.914062 75.917969 12.011719 76.03125 C 12.113281 76.144531 12.222656 76.246094 12.347656 76.332031 L 31.167969 89.503906 C 31.453125 89.707031 31.773438 89.820312 32.125 89.839844 C 32.472656 89.863281 32.804688 89.796875 33.113281 89.632812 C 33.425781 89.472656 33.671875 89.238281 33.855469 88.941406 C 34.035156 88.640625 34.128906 88.316406 34.128906 87.964844 L 34.128906 82.320312 L 54.828125 82.320312 C 66.253906 82.304688 75.515625 73.046875 75.527344 61.617188 L 75.527344 42 C 75.527344 41.75 75.480469 41.511719 75.382812 41.28125 C 75.289062 41.050781 75.152344 40.847656 74.976562 40.667969 C 74.800781 40.492188 74.597656 40.355469 74.367188 40.261719 C 74.136719 40.167969 73.894531 40.117188 73.644531 40.117188 Z M 73.644531 40.117188 " fill-opacity="1" fill-rule="nonzero"/></g><path fill="#9440dd" d="M 14.96875 30.796875 L 33.792969 30.796875 L 33.792969 35.671875 L 23.921875 59.949219 L 17.84375 59.949219 L 27.421875 36.296875 L 14.96875 36.296875 Z M 14.96875 30.796875 " fill-opacity="1" fill-rule="evenodd"/></svg>