<svg xmlns="http://www.w3.org/2000/svg" xmlns:xlink="http://www.w3.org/1999/xlink" width="109" zoomAndPan="magnify" viewBox="0 0 81.75 89.249998" height="119" preserveAspectRatio="xMidYMid meet" version="1.0"><defs><clipPath id="f161769d0f"><path d="M 24 33 L 58.605469 33 L 58.605469 59.945312 L 24 59.945312 Z M 24 33 " clip-rule="nonzero"/></clipPath><clipPath id="eafb48a4c8"><path d="M 23 25.730469 L 37 25.730469 L 37 44 L 23 44 Z M 23 25.730469 " clip-rule="nonzero"/></clipPath></defs><path fill="#9440dd" d="M 32.964844 58.941406 L 26.617188 58.941406 C 26.441406 58.941406 26.273438 58.90625 26.109375 58.839844 C 25.949219 58.773438 25.804688 58.675781 25.679688 58.550781 C 25.558594 58.429688 25.460938 58.285156 25.394531 58.125 C 25.328125 57.960938 25.292969 57.792969 25.292969 57.617188 L 25.292969 46.835938 C 25.292969 46.660156 25.328125 46.492188 25.394531 46.328125 C 25.460938 46.167969 25.558594 46.023438 25.679688 45.898438 C 25.804688 45.773438 25.949219 45.679688 26.109375 45.613281 C 26.273438 45.546875 26.441406 45.511719 26.617188 45.511719 L 32.96875 45.511719 C 33.140625 45.511719 33.3125 45.546875 33.472656 45.613281 C 33.636719 45.679688 33.777344 45.773438 33.902344 45.898438 C 34.027344 46.023438 34.121094 46.167969 34.191406 46.328125 C 34.257812 46.492188 34.289062 46.660156 34.289062 46.835938 L 34.289062 57.617188 C 34.289062 57.792969 34.257812 57.960938 34.1875 58.125 C 34.121094 58.285156 34.027344 58.429688 33.902344 58.550781 C 33.777344 58.675781 33.636719 58.773438 33.472656 58.839844 C 33.3125 58.90625 33.140625 58.941406 32.96875 58.941406 Z M 32.964844 58.941406 " fill-opacity="1" fill-rule="nonzero"/><path fill="#ffffff" d="M 54.082031 49.414062 L 52.007812 49.414062 C 52.21875 49.414062 52.421875 49.375 52.617188 49.292969 C 52.8125 49.214844 52.984375 49.097656 53.132812 48.949219 C 53.28125 48.800781 53.394531 48.628906 53.476562 48.433594 C 53.558594 48.238281 53.597656 48.039062 53.597656 47.828125 C 53.597656 47.617188 53.558594 47.414062 53.476562 47.21875 C 53.394531 47.023438 53.28125 46.851562 53.132812 46.703125 C 52.984375 46.554688 52.8125 46.441406 52.617188 46.359375 C 52.421875 46.28125 52.21875 46.238281 52.007812 46.238281 L 40.535156 46.238281 L 41.089844 45.53125 L 41.089844 42.191406 L 37.871094 43.378906 L 34.289062 46.96875 L 34.289062 56.691406 L 36.113281 58.28125 C 36.617188 58.722656 37.203125 58.941406 37.871094 58.941406 L 50.371094 58.941406 C 51.261719 58.941406 52.011719 58.210938 51.996094 57.320312 C 51.992188 57.113281 51.949219 56.914062 51.867188 56.722656 C 51.785156 56.53125 51.667969 56.363281 51.519531 56.21875 C 51.371094 56.074219 51.203125 55.960938 51.007812 55.882812 C 50.816406 55.804688 50.617188 55.765625 50.410156 55.765625 L 52.628906 55.765625 C 53.519531 55.765625 54.269531 55.035156 54.253906 54.148438 C 54.25 53.9375 54.207031 53.738281 54.121094 53.546875 C 54.039062 53.359375 53.925781 53.191406 53.777344 53.042969 C 53.628906 52.898438 53.457031 52.785156 53.265625 52.707031 C 53.074219 52.628906 52.871094 52.589844 52.664062 52.589844 L 54.082031 52.589844 C 54.289062 52.589844 54.492188 52.550781 54.6875 52.46875 C 54.882812 52.386719 55.054688 52.273438 55.203125 52.125 C 55.351562 51.976562 55.464844 51.804688 55.546875 51.609375 C 55.628906 51.414062 55.667969 51.210938 55.667969 51.003906 C 55.667969 50.792969 55.628906 50.589844 55.546875 50.394531 C 55.464844 50.199219 55.351562 50.027344 55.203125 49.878906 C 55.054688 49.730469 54.882812 49.617188 54.6875 49.535156 C 54.492188 49.453125 54.289062 49.414062 54.082031 49.414062 Z M 54.082031 49.414062 " fill-opacity="1" fill-rule="nonzero"/><path fill="#434a54" d="M 29.792969 55.632812 C 29.617188 55.632812 29.445312 55.703125 29.324219 55.828125 C 29.195312 55.957031 29.128906 56.113281 29.128906 56.292969 C 29.128906 56.46875 29.199219 56.640625 29.324219 56.761719 C 29.453125 56.890625 29.609375 56.957031 29.792969 56.957031 C 29.964844 56.957031 30.136719 56.886719 30.257812 56.761719 C 30.386719 56.632812 30.453125 56.476562 30.453125 56.292969 C 30.453125 56.121094 30.382812 55.949219 30.257812 55.828125 C 30.128906 55.699219 29.972656 55.632812 29.792969 55.632812 Z M 55.222656 38.488281 C 55.050781 38.488281 54.878906 38.558594 54.757812 38.683594 C 54.628906 38.8125 54.5625 38.96875 54.5625 39.148438 C 54.5625 39.324219 54.632812 39.496094 54.757812 39.617188 C 54.886719 39.746094 55.042969 39.808594 55.222656 39.8125 C 55.398438 39.8125 55.570312 39.742188 55.691406 39.617188 C 55.820312 39.488281 55.886719 39.332031 55.886719 39.148438 C 55.886719 38.96875 55.820312 38.8125 55.691406 38.683594 C 55.5625 38.554688 55.40625 38.488281 55.222656 38.488281 Z M 55.222656 38.488281 " fill-opacity="1" fill-rule="nonzero"/><g clip-path="url(#f161769d0f)"><path fill="#434a54" d="M 58.308594 33.5625 C 58.179688 33.433594 58.023438 33.367188 57.839844 33.367188 L 41.566406 33.367188 C 41.382812 33.367188 41.226562 33.433594 41.097656 33.5625 C 40.96875 33.691406 40.90625 33.847656 40.90625 34.03125 L 40.90625 41.371094 C 39.992188 41.691406 39.113281 42.078125 38.261719 42.535156 C 37.429688 42.976562 36.941406 43.378906 36.707031 43.613281 L 34.605469 45.714844 C 34.421875 45.445312 34.183594 45.234375 33.894531 45.078125 C 33.601562 44.925781 33.292969 44.851562 32.964844 44.851562 L 26.617188 44.851562 C 26.355469 44.851562 26.101562 44.902344 25.859375 45 C 25.613281 45.101562 25.398438 45.246094 25.214844 45.433594 C 25.027344 45.617188 24.882812 45.832031 24.785156 46.074219 C 24.683594 46.320312 24.632812 46.570312 24.632812 46.835938 L 24.632812 57.617188 C 24.632812 57.878906 24.683594 58.132812 24.785156 58.375 C 24.882812 58.617188 25.027344 58.832031 25.214844 59.019531 C 25.398438 59.207031 25.613281 59.347656 25.859375 59.449219 C 26.101562 59.550781 26.351562 59.601562 26.617188 59.601562 L 32.96875 59.601562 C 33.898438 59.601562 34.679688 58.960938 34.894531 58.09375 L 35.679688 58.78125 C 36.308594 59.328125 37.039062 59.601562 37.871094 59.601562 L 57.839844 59.601562 C 58.023438 59.601562 58.179688 59.535156 58.308594 59.40625 C 58.4375 59.277344 58.5 59.121094 58.5 58.941406 L 58.5 34.027344 C 58.5 33.855469 58.429688 33.6875 58.308594 33.5625 Z M 32.964844 58.277344 L 26.617188 58.277344 C 26.25 58.277344 25.953125 57.980469 25.953125 57.617188 L 25.953125 46.835938 C 25.953125 46.46875 26.25 46.171875 26.617188 46.171875 L 29.128906 46.171875 L 29.128906 53.792969 C 29.136719 53.972656 29.203125 54.125 29.332031 54.25 C 29.460938 54.375 29.613281 54.4375 29.792969 54.4375 C 29.972656 54.4375 30.125 54.375 30.253906 54.25 C 30.382812 54.125 30.449219 53.972656 30.453125 53.792969 L 30.453125 46.171875 L 32.96875 46.171875 C 33.332031 46.171875 33.628906 46.46875 33.628906 46.835938 L 33.628906 57.617188 C 33.628906 57.980469 33.332031 58.277344 32.96875 58.277344 Z M 36.550781 57.785156 L 34.953125 56.390625 L 34.953125 47.242188 L 37.09375 45.066406 C 37.699219 44.542969 38.207031 44.164062 38.617188 43.933594 C 39.476562 43.449219 40.238281 43.109375 40.902344 42.917969 L 40.902344 44.695312 L 40.261719 46.402344 C 40.300781 46.546875 40.378906 46.667969 40.496094 46.761719 C 40.617188 46.851562 40.75 46.898438 40.902344 46.898438 L 52.007812 46.902344 C 52.265625 46.902344 52.484375 46.992188 52.664062 47.171875 C 52.84375 47.351562 52.9375 47.570312 52.9375 47.828125 C 52.9375 48.082031 52.84375 48.300781 52.664062 48.480469 C 52.484375 48.664062 52.265625 48.753906 52.007812 48.753906 L 45.34375 48.753906 C 45.164062 48.757812 45.011719 48.824219 44.886719 48.953125 C 44.761719 49.082031 44.699219 49.234375 44.699219 49.414062 C 44.699219 49.59375 44.761719 49.75 44.886719 49.878906 C 45.011719 50.007812 45.164062 50.074219 45.34375 50.074219 L 54.082031 50.074219 C 54.335938 50.078125 54.554688 50.167969 54.734375 50.347656 C 54.914062 50.527344 55.007812 50.746094 55.007812 51.003906 C 55.007812 51.257812 54.914062 51.476562 54.734375 51.65625 C 54.554688 51.835938 54.335938 51.929688 54.082031 51.929688 L 45.34375 51.929688 C 45.164062 51.933594 45.011719 52 44.886719 52.125 C 44.761719 52.253906 44.695312 52.410156 44.695312 52.589844 C 44.695312 52.769531 44.761719 52.925781 44.886719 53.054688 C 45.011719 53.179688 45.164062 53.246094 45.34375 53.25 L 52.664062 53.25 C 52.921875 53.25 53.136719 53.34375 53.320312 53.523438 C 53.5 53.703125 53.589844 53.921875 53.589844 54.175781 C 53.589844 54.433594 53.5 54.652344 53.320312 54.832031 C 53.136719 55.011719 52.921875 55.101562 52.664062 55.105469 L 45.34375 55.105469 C 45.164062 55.105469 45.011719 55.171875 44.886719 55.300781 C 44.761719 55.429688 44.699219 55.585938 44.699219 55.765625 C 44.699219 55.945312 44.761719 56.097656 44.886719 56.226562 C 45.011719 56.355469 45.164062 56.421875 45.34375 56.425781 L 50.410156 56.425781 C 50.664062 56.425781 50.882812 56.519531 51.0625 56.699219 C 51.242188 56.878906 51.335938 57.097656 51.335938 57.351562 C 51.335938 57.609375 51.242188 57.828125 51.0625 58.007812 C 50.882812 58.1875 50.664062 58.277344 50.410156 58.277344 L 37.871094 58.277344 C 37.367188 58.277344 36.925781 58.113281 36.550781 57.785156 Z M 52.457031 58.277344 C 52.585938 57.996094 52.65625 57.683594 52.65625 57.351562 C 52.65625 57.03125 52.589844 56.71875 52.457031 56.425781 L 52.664062 56.425781 C 53.90625 56.425781 54.914062 55.417969 54.914062 54.175781 C 54.914062 53.816406 54.828125 53.472656 54.675781 53.171875 C 55.628906 52.910156 56.328125 52.035156 56.328125 51.003906 C 56.328125 50.507812 56.183594 50.058594 55.886719 49.660156 L 55.886719 41.277344 C 55.882812 41.097656 55.816406 40.945312 55.6875 40.820312 C 55.558594 40.691406 55.402344 40.628906 55.222656 40.628906 C 55.042969 40.628906 54.890625 40.691406 54.761719 40.820312 C 54.632812 40.945312 54.566406 41.097656 54.5625 41.277344 L 54.5625 48.804688 C 54.402344 48.769531 54.242188 48.753906 54.082031 48.753906 C 54.1875 48.46875 54.257812 48.15625 54.257812 47.828125 C 54.257812 46.585938 53.25 45.578125 52.007812 45.578125 L 42.226562 45.578125 L 42.226562 34.972656 L 57.179688 34.972656 L 57.179688 58.277344 Z M 52.457031 58.277344 " fill-opacity="1" fill-rule="nonzero"/></g><path fill="#434a54" d="M 44.425781 34.78125 L 48.105469 34.78125 L 48.105469 45.808594 L 44.425781 45.808594 Z M 44.425781 34.78125 " fill-opacity="1" fill-rule="evenodd"/><g clip-path="url(#eafb48a4c8)"><path fill="#5271ff" d="M 30.402344 43.625 C 30.335938 43.703125 30.253906 43.765625 30.160156 43.808594 C 30.066406 43.851562 29.964844 43.875 29.863281 43.875 C 29.757812 43.875 29.660156 43.851562 29.566406 43.808594 C 29.472656 43.765625 29.390625 43.703125 29.324219 43.625 C 25.164062 38.734375 23.078125 35.125 23.078125 32.660156 C 23.078125 28.914062 26.113281 25.875 29.863281 25.875 C 33.609375 25.875 36.648438 28.914062 36.648438 32.660156 C 36.648438 35.125 34.558594 38.734375 30.402344 43.625 Z M 35.234375 32.660156 C 35.234375 29.691406 32.832031 27.289062 29.863281 27.289062 C 26.894531 27.289062 24.488281 29.691406 24.488281 32.660156 C 24.488281 34.578125 26.273438 37.753906 29.863281 42.070312 C 33.449219 37.753906 35.234375 34.578125 35.234375 32.660156 Z M 35.234375 32.660156 " fill-opacity="1" fill-rule="nonzero"/></g><path fill="#5271ff" d="M 29.863281 35.984375 C 28.027344 35.984375 26.539062 34.496094 26.539062 32.660156 C 26.539062 30.824219 28.027344 29.335938 29.863281 29.335938 C 31.699219 29.335938 33.1875 30.824219 33.1875 32.660156 C 33.1875 34.496094 31.699219 35.984375 29.863281 35.984375 Z M 29.863281 34.710938 C 30.136719 34.710938 30.394531 34.660156 30.648438 34.554688 C 30.898438 34.449219 31.121094 34.304688 31.3125 34.109375 C 31.503906 33.917969 31.652344 33.695312 31.757812 33.445312 C 31.863281 33.195312 31.914062 32.933594 31.914062 32.660156 C 31.914062 32.386719 31.863281 32.128906 31.757812 31.875 C 31.652344 31.625 31.503906 31.402344 31.3125 31.210938 C 31.121094 31.019531 30.898438 30.871094 30.648438 30.765625 C 30.394531 30.664062 30.136719 30.609375 29.863281 30.609375 C 29.589844 30.609375 29.328125 30.664062 29.078125 30.765625 C 28.828125 30.871094 28.605469 31.019531 28.414062 31.210938 C 28.222656 31.402344 28.074219 31.625 27.96875 31.875 C 27.867188 32.128906 27.8125 32.390625 27.8125 32.660156 C 27.8125 32.933594 27.867188 33.195312 27.96875 33.445312 C 28.074219 33.695312 28.222656 33.917969 28.414062 34.109375 C 28.605469 34.300781 28.828125 34.449219 29.078125 34.554688 C 29.328125 34.660156 29.589844 34.710938 29.863281 34.710938 Z M 29.863281 34.710938 " fill-opacity="1" fill-rule="nonzero"/></svg>