<svg xmlns="http://www.w3.org/2000/svg" xmlns:xlink="http://www.w3.org/1999/xlink" width="146" zoomAndPan="magnify" viewBox="0 0 109.5 30.000001" height="40" preserveAspectRatio="xMidYMid meet" version="1.0"><defs><g/><clipPath id="91420010eb"><path d="M 1.523438 0 L 107.492188 0 L 107.492188 29.03125 L 1.523438 29.03125 Z M 1.523438 0 " clip-rule="nonzero"/></clipPath><clipPath id="8ea0979e50"><path d="M 0.523438 6 L 14 6 L 14 24 L 0.523438 24 Z M 0.523438 6 " clip-rule="nonzero"/></clipPath><clipPath id="42ffcc5334"><rect x="0" width="107" y="0" height="30"/></clipPath></defs><g clip-path="url(#91420010eb)"><path fill="#ffffff" d="M 1.523438 0 L 107.492188 0 L 107.492188 29.03125 L 1.523438 29.03125 Z M 1.523438 0 " fill-opacity="1" fill-rule="nonzero"/><path fill="#ffffff" d="M 1.523438 0 L 107.492188 0 L 107.492188 29.03125 L 1.523438 29.03125 Z M 1.523438 0 " fill-opacity="1" fill-rule="nonzero"/><g transform="matrix(1, 0, 0, 1, 1, 0.000000000000005692)"><g clip-path="url(#42ffcc5334)"><g clip-path="url(#8ea0979e50)"><g fill="#6b1fad" fill-opacity="1"><g transform="translate(0.310048, 22.935537)"><g><path d="M 7.125 0.234375 C 6.007812 0.234375 5.015625 0.0976562 4.140625 -0.171875 C 3.273438 -0.453125 2.550781 -0.816406 1.96875 -1.265625 C 1.394531 -1.710938 0.957031 -2.203125 0.65625 -2.734375 L 2.390625 -4.875 L 2.671875 -4.875 C 3.160156 -4.15625 3.773438 -3.582031 4.515625 -3.15625 C 5.265625 -2.726562 6.132812 -2.515625 7.125 -2.515625 C 7.976562 -2.515625 8.617188 -2.691406 9.046875 -3.046875 C 9.484375 -3.410156 9.703125 -3.910156 9.703125 -4.546875 C 9.703125 -4.921875 9.628906 -5.238281 9.484375 -5.5 C 9.347656 -5.757812 9.117188 -5.976562 8.796875 -6.15625 C 8.472656 -6.34375 8.035156 -6.503906 7.484375 -6.640625 L 5.421875 -7.109375 C 3.972656 -7.441406 2.894531 -7.988281 2.1875 -8.75 C 1.488281 -9.519531 1.140625 -10.515625 1.140625 -11.734375 C 1.140625 -12.648438 1.363281 -13.453125 1.8125 -14.140625 C 2.269531 -14.828125 2.929688 -15.359375 3.796875 -15.734375 C 4.671875 -16.117188 5.710938 -16.3125 6.921875 -16.3125 C 8.160156 -16.3125 9.222656 -16.148438 10.109375 -15.828125 C 10.992188 -15.503906 11.738281 -15.003906 12.34375 -14.328125 L 10.765625 -12.171875 L 10.5 -12.171875 C 10.039062 -12.648438 9.515625 -13.003906 8.921875 -13.234375 C 8.335938 -13.472656 7.671875 -13.59375 6.921875 -13.59375 C 6.046875 -13.59375 5.378906 -13.4375 4.921875 -13.125 C 4.472656 -12.820312 4.25 -12.398438 4.25 -11.859375 C 4.25 -11.347656 4.40625 -10.941406 4.71875 -10.640625 C 5.039062 -10.347656 5.59375 -10.117188 6.375 -9.953125 L 8.5 -9.5 C 10.0625 -9.175781 11.191406 -8.617188 11.890625 -7.828125 C 12.597656 -7.035156 12.953125 -6.003906 12.953125 -4.734375 C 12.953125 -3.734375 12.734375 -2.859375 12.296875 -2.109375 C 11.867188 -1.367188 11.21875 -0.789062 10.34375 -0.375 C 9.46875 0.03125 8.394531 0.234375 7.125 0.234375 Z M 7.125 0.234375 "/></g></g></g></g><g fill="#6b1fad" fill-opacity="1"><g transform="translate(14.126509, 22.935537)"><g><path d="M 12.46875 -10.03125 L 12.46875 -16.078125 L 15.640625 -16.078125 L 15.640625 0 L 12.46875 0 L 12.46875 -7.328125 L 5.265625 -7.328125 L 5.265625 0 L 2.09375 0 L 2.09375 -16.078125 L 5.265625 -16.078125 L 5.265625 -10.03125 Z M 12.46875 -10.03125 "/></g></g></g><g fill="#6b1fad" fill-opacity="1"><g transform="translate(31.870103, 22.935537)"><g><path d="M 5.265625 0 L 2.09375 0 L 2.09375 -16.078125 L 5.265625 -16.078125 Z M 5.265625 0 "/></g></g></g><g fill="#6b1fad" fill-opacity="1"><g transform="translate(39.240349, 22.935537)"><g><path d="M 5.265625 -16.078125 L 5.265625 -2.65625 L 12.5 -2.65625 L 12.5 0 L 2.09375 0 L 2.09375 -16.078125 Z M 5.265625 -16.078125 "/></g></g></g><g fill="#6b1fad" fill-opacity="1"><g transform="translate(52.264783, 22.935537)"><g><path d="M 5.265625 0 L 2.09375 0 L 2.09375 -16.078125 L 5.265625 -16.078125 Z M 5.265625 0 "/></g></g></g><g fill="#6b1fad" fill-opacity="1"><g transform="translate(59.635029, 22.935537)"><g><path d="M 2.09375 0 L 2.09375 -16.078125 L 8.546875 -16.078125 C 10.210938 -16.078125 11.46875 -15.691406 12.3125 -14.921875 C 13.164062 -14.160156 13.59375 -13.109375 13.59375 -11.765625 C 13.59375 -10.785156 13.34375 -9.984375 12.84375 -9.359375 C 12.351562 -8.734375 11.613281 -8.257812 10.625 -7.9375 L 10.625 -7.703125 C 11.132812 -7.484375 11.546875 -7.15625 11.859375 -6.71875 C 12.171875 -6.289062 12.460938 -5.648438 12.734375 -4.796875 L 14.34375 0 L 11.078125 0 L 9.5 -4.8125 C 9.34375 -5.289062 9.160156 -5.664062 8.953125 -5.9375 C 8.753906 -6.207031 8.5 -6.398438 8.1875 -6.515625 C 7.875 -6.640625 7.46875 -6.703125 6.96875 -6.703125 L 5.265625 -6.703125 L 5.265625 0 Z M 8.15625 -9.21875 C 9.695312 -9.21875 10.46875 -9.9375 10.46875 -11.375 C 10.46875 -12.832031 9.695312 -13.5625 8.15625 -13.5625 L 5.265625 -13.5625 L 5.265625 -9.21875 Z M 8.15625 -9.21875 "/></g></g></g><g fill="#6b1fad" fill-opacity="1"><g transform="translate(74.672529, 22.935537)"><g><path d="M 15.4375 0 L 12.09375 0 L 10.875 -3.703125 L 4.71875 -3.703125 L 3.515625 0 L 0.234375 0 L 5.796875 -16.078125 L 9.875 -16.078125 Z M 7.640625 -12.734375 L 5.578125 -6.375 L 10 -6.375 L 7.921875 -12.734375 Z M 7.640625 -12.734375 "/></g></g></g><g fill="#6b1fad" fill-opacity="1"><g transform="translate(90.348054, 22.935537)"><g><path d="M 5.171875 0 L 2.09375 0 L 2.09375 -16.078125 L 5.734375 -16.078125 L 12.1875 -5.71875 L 12.46875 -5.765625 L 12.46875 -16.078125 L 15.53125 -16.078125 L 15.53125 0 L 12.28125 0 L 5.453125 -11.0625 L 5.171875 -11.03125 Z M 5.171875 0 "/></g></g></g></g></g></g></svg>